<?xml version="1.0" encoding="UTF-8"?><svg id="Layer_1" xmlns="http://www.w3.org/2000/svg" viewBox="0 0 226.22 226.21"><defs><style>.cls-1{fill:#626b7a;}</style></defs><path class="cls-1" d="M200.74,91.21s-.06-.05-.1-.07h0c-.16-.08-.29-.17-.43-.3-.05-.04-.09-.08-.14-.12-.14-.16-.27-.34-.35-.55l-.02-.04-9.01-21.93h0s-.01-.02-.01-.02c-.04-.1-.04-.21-.06-.31-.04-.14-.08-.28-.08-.43,0-.14,.04-.27,.07-.4,0-.02,0-.04,.01-.06,.02-.08,.01-.17,.04-.25v-.02s.02-.04,.03-.05l9.98-25.9-15.11-15.2-25.96,10.1s-.04,0-.06,.01c-.21,.07-.42,.12-.63,.12-.23,0-.45-.05-.66-.13-.03,0-.05,0-.08-.02l-22.11-9.25s-.06-.05-.09-.06c-.16-.08-.31-.18-.44-.3-.04-.04-.09-.06-.13-.11-.14-.15-.27-.32-.36-.53l-.02-.05h0L123.76,0h-21.41l-11.15,25.38c-.09,.2-.21,.38-.36,.53-.04,.04-.08,.07-.13,.11-.13,.12-.28,.22-.44,.3-.04,.02-.06,.05-.09,.06l-22.11,9.25s-.05,0-.08,.02c-.21,.08-.43,.13-.67,.13s-.43-.05-.64-.12c-.02,0-.04,0-.06-.01l-25.86-10.09-15.11,15.2,10,25.97c.25,.64,.1,1.31-.28,1.83l-8.87,21.58-.02,.04c-.08,.21-.21,.39-.35,.55-.04,.05-.09,.08-.14,.12-.13,.12-.27,.22-.42,.3-.04,.02-.06,.05-.1,.07L0,102.36v21.4l25.44,11.23s0,0,0,0l.04,.02c.08,.03,.12,.09,.19,.14,.14,.08,.28,.15,.39,.27,0,0,.01,.02,.02,.03,.09,.09,.14,.21,.21,.31,.06,.1,.15,.18,.19,.29h0s.02,.04,.02,.04h0s9.13,22.18,9.13,22.18c.26,.63,.13,1.31-.24,1.83l-9.75,25.37,15.11,15.2,25.81-10.07h0s.02-.01,.02-.01h.03c.07-.04,.15-.03,.22-.05,.16-.04,.31-.09,.48-.1h0s.02,0,.02,0c.13,0,.24,.05,.35,.07,0,0,0,0,.01,0,.12,.02,.24,.02,.36,.07l22.11,9.25h0c.12,.05,.22,.15,.32,.22,.09,.06,.19,.11,.27,.18,.01,.01,.02,.02,.03,.03,.1,.1,.16,.23,.23,.34,.01,.02,.03,.04,.04,.06,.04,.06,.09,.11,.13,.18v.02s.01,0,.01,0l11.14,25.36h21.41l11.23-25.34h0v-.02s0,0,0,0l.02-.03c.03-.07,.1-.12,.14-.19,0,0,.02-.03,.03-.04,.07-.12,.13-.24,.23-.34,.01-.01,.02-.02,.03-.03,.09-.08,.2-.14,.31-.21,.09-.06,.18-.15,.28-.19,0,0,0,0,0,0l22.11-9.25c.08-.04,.17-.03,.26-.05,.04-.01,.08-.02,.11-.02,.12-.03,.22-.06,.34-.07,0,0,.02,0,.03,0,.09,0,.18,.04,.27,.05,.03,0,.07,.01,.1,.02,.11,.02,.22,.02,.33,.05l25.96,10.1,15.11-15.2-10.01-25.76c-.04-.09-.03-.18-.05-.28-.03-.12-.07-.23-.07-.35v-.04s0-.03,0-.03c0-.16,.05-.3,.08-.44,.03-.1,.02-.19,.06-.29l.23-.55,8.81-21.63v-.03s.02-.01,.02-.01c.05-.11,.13-.19,.19-.29,.07-.11,.12-.22,.21-.31,.12-.13,.27-.22,.43-.3,.06-.04,.11-.09,.17-.12h.03s0-.01,0-.01l25.45-11.24v-21.4l-25.48-11.15Zm-87.63,87.13c-36.03,0-65.23-29.21-65.23-65.23S77.08,47.87,113.11,47.87s65.23,29.21,65.23,65.23-29.21,65.23-65.23,65.23Z"/><g><g><polygon class="cls-1" points="52.97 113.26 80.85 85.37 89.35 93.87 69.97 113.26 89.06 132.34 80.56 140.84 52.97 113.26"/><path class="cls-1" d="M80.85,87.49l6.38,6.38-19.38,19.38,19.09,19.09-6.38,6.38-25.47-25.46,25.76-25.76m0-4.24l-2.12,2.12-25.76,25.76-2.12,2.12,2.12,2.12,25.47,25.46,2.12,2.12,2.12-2.12,6.38-6.38,2.12-2.12-2.12-2.12-16.96-16.96,17.26-17.26,2.12-2.12-2.12-2.12-6.38-6.38-2.12-2.12h0Z"/></g><g><polygon class="cls-1" points="136.87 132.34 156.25 112.96 137.16 93.87 145.66 85.37 173.25 112.96 145.36 140.84 136.87 132.34"/><path class="cls-1" d="M145.66,87.49l25.46,25.46-25.76,25.76-6.38-6.38,19.38-19.38-19.08-19.09,6.38-6.38m0-4.24l-2.12,2.12-6.38,6.38-2.12,2.12,2.12,2.12,16.96,16.97-17.26,17.26-2.12,2.12,2.12,2.12,6.38,6.38,2.12,2.12,2.12-2.12,25.76-25.76,2.12-2.12-2.12-2.12-25.46-25.46-2.12-2.12h0Z"/></g><g><rect class="cls-1" x="84.29" y="107.1" width="57.64" height="12.02" transform="translate(-36.67 169.27) rotate(-65.56)"/><path class="cls-1" d="M120.31,86.37l8.21,3.73-22.61,49.75-8.21-3.73,22.61-49.75m-1.49-3.97l-1.24,2.73-22.61,49.75-1.24,2.73,2.73,1.24,8.21,3.73,2.73,1.24,1.24-2.73,22.61-49.75,1.24-2.73-2.73-1.24-8.21-3.73-2.73-1.24h0Z"/></g></g></svg>