<?xml version="1.0" encoding="UTF-8"?><svg id="Layer_1" xmlns="http://www.w3.org/2000/svg" viewBox="0 0 226.22 226.21"><defs><style>.cls-1{fill:#fff;}.cls-2{fill:#6c7784;}.cls-3{fill:none;stroke:#6c7784;stroke-linecap:round;stroke-linejoin:round;stroke-width:6.09px;}</style></defs><circle class="cls-2" cx="113.11" cy="113.11" r="113.11"/><g><path class="cls-1" d="M182.7,171.2c-5.4-7.89-11.69-15.21-19.14-21.2-15-12.06-32.4-18.53-50.45-18.53-21.09,0-41.29,8.84-57.81,25.09-4.02,3.95-7.52,8.39-10.76,13l-3.02,4.29c17.51,19.83,43.11,32.35,71.58,32.35s53.98-12.48,71.48-32.24l-1.9-2.77Z"/><path class="cls-1" d="M113.12,45.19c-20.61,0-37.37,16.77-37.37,37.37s16.77,37.37,37.37,37.37,37.37-16.77,37.37-37.37-16.77-37.37-37.37-37.37Z"/></g><path class="cls-3" d="M96.86,95.77c3.53,5.23,9.51,8.67,16.28,8.67s12.7-3.41,16.24-8.6"/></svg>