<?xml version="1.0" encoding="UTF-8"?><svg id="Layer_1" xmlns="http://www.w3.org/2000/svg" viewBox="0 0 227.1 225.34"><defs><style>.cls-1,.cls-2{fill:#626b7a;}.cls-2{stroke:#626b7a;stroke-miterlimit:10;stroke-width:2px;}</style></defs><path class="cls-1" d="M198.19,22c3.32,0,6.03,2.7,6.03,6.03V198.19c0,3.32-2.7,6.03-6.03,6.03H28.9c-3.32,0-6.03-2.7-6.03-6.03V28.03c0-3.32,2.7-6.03,6.03-6.03h22.75V0H28.9C13.43,0,.88,12.55,.88,28.03V198.19c0,15.48,12.55,28.03,28.03,28.03H198.19c15.48,0,28.03-12.55,28.03-28.03V28.03c0-15.48-12.55-28.03-28.03-28.03h-22.75V22h22.75Z"/><path class="cls-2" d="M158.34,131.27c.26,9.36-3.38,17.66-10.55,23.99-6.24,5.52-14.75,9.06-24.18,10.27v12.22h-15.33v-12.33c-19.4-2.75-34.64-15.21-39.53-32.88l18.02-4.13c3.25,11.73,12.4,17.69,21.51,19.8v-40.52c-.61-.23-1.26-.47-1.97-.73-9.99-3.65-33.37-12.2-31.7-34.25,1.36-17.92,17.21-28.07,33.67-29.82v-12.03h15.33v12.6c14.57,2.58,25.3,10.86,30.76,23.97l-17.38,5.97c-2.63-6.35-7.07-10.43-13.37-12.44v34.04c13.31,4.69,34.09,13.43,34.73,36.26ZM108.29,60.02c-5.76,1.05-14.41,4.23-15.14,13.86-.54,7.1,5.05,11.35,15.14,15.49v-29.36Zm31.47,71.67c-.26-9.27-6.92-14.34-16.15-18.32v35.02c4.46-.94,8.39-2.73,11.21-5.22,3.4-3.01,5.07-6.87,4.94-11.47Z"/></svg>