<?xml version="1.0" encoding="UTF-8"?><svg id="Layer_1" xmlns="http://www.w3.org/2000/svg" viewBox="0 0 174.53 211.27"><defs><style>.cls-1{fill:#626b7a;}</style></defs><path class="cls-1" d="M87.05,0c-1.09,.03-2.08,.36-3.09,.86L3.59,44.5C1.41,45.68-.02,48.12,0,50.6,0,102.89,10.89,136.85,27.13,160.75c16.24,23.9,37.42,37.29,56.41,49.44,2.21,1.42,5.25,1.42,7.46,0,18.99-12.16,40.17-25.55,56.41-49.44s27.13-57.86,27.13-110.16c.02-2.48-1.41-4.91-3.59-6.1L90.57,.86C89.31,.26,88.14-.02,87.05,0h0Zm.21,14.78l73.27,39.76c-.24,19.95-2.13,36.75-5.24,51.1H87.27v90.57c-17.74-11.41-35.23-23.33-48.73-43.2-8.18-12.05-14.95-27.3-19.3-47.37H87.27V14.78h0Z"/></svg>