<?xml version="1.0" encoding="UTF-8"?><svg id="Layer_1" xmlns="http://www.w3.org/2000/svg" viewBox="0 0 268.79 219.72"><defs><style>.cls-1{fill:#626b7a;}</style></defs><path class="cls-1" d="M244.25,80.3h-13.38v36.8c0,21.19-17.84,39.04-39.04,39.04H118.22l-15.61,15.61c2.23,11.15,11.15,18.96,22.31,18.96h64.69s26.77,26.77,26.77,26.77c1.11,1.11,3.35,2.23,5.58,2.23,1.11,0,2.23,0,3.35-1.11,3.35-1.11,5.58-4.46,5.58-7.81v-21.19h14.5c12.27,0,23.42-10.04,23.42-22.31V102.61c-2.23-12.27-12.27-22.31-24.54-22.31h0Z"/><path class="cls-1" d="M181.79,0H27.88C12.27,0,0,12.27,0,27.88V111.53c0,15.61,12.27,27.88,27.88,27.88h20.08v29c0,3.35,2.23,6.69,5.58,7.81,1.11,0,2.23,1.11,3.35,1.11,2.23,0,4.46-1.11,6.69-2.23l35.69-35.69h83.65c15.61,0,27.88-12.27,27.88-27.88V27.88c-1.11-14.5-13.38-27.88-29-27.88ZM50.19,86.99c-8.92,0-16.73-7.81-16.73-16.73s7.81-16.73,16.73-16.73,16.73,7.81,16.73,16.73-7.81,16.73-16.73,16.73Zm55.77,0c-8.92,0-16.73-7.81-16.73-16.73s7.81-16.73,16.73-16.73,16.73,7.81,16.73,16.73-7.81,16.73-16.73,16.73Zm55.76,0c-8.92,0-16.73-7.81-16.73-16.73s7.81-16.73,16.73-16.73,16.73,7.81,16.73,16.73-7.81,16.73-16.73,16.73Z"/></svg>