<?xml version="1.0" encoding="UTF-8"?><svg id="Layer_1" xmlns="http://www.w3.org/2000/svg" viewBox="0 0 226.22 226.21"><defs><style>.cls-1{fill:#626b7a;}</style></defs><path class="cls-1" d="M224.79,199.56c-4.07-5.95-8.81-11.46-14.43-15.98-11.3-9.09-24.41-13.97-38.02-13.97-15.89,0-31.12,6.66-43.57,18.91-3.03,2.98-5.67,6.32-8.11,9.8l-2.27,3.24c13.2,14.94,32.49,24.38,53.95,24.38s40.68-9.4,53.87-24.3l-1.43-2.09Z"/><path class="cls-1" d="M172.34,104.6c-15.53,0-28.17,12.63-28.17,28.16s12.63,28.17,28.17,28.17,28.16-12.63,28.16-28.17-12.63-28.16-28.16-28.16Z"/><path class="cls-1" d="M158.16,157.08c.33-.07,.66-.12,1-.18,1.83-12.09,.86-24.51-2.93-36.26-.92-2.84-2-5.62-3.22-8.32-5.43,5.14-8.82,12.4-8.82,20.44,0,10.36,5.63,19.43,13.99,24.32Z"/><path class="cls-1" d="M145.96,99.9c-5.01-7.25-11.22-13.66-18.42-18.92h0s0-35.05,0-35.05C127.54,21.64,106.53,1.89,80.69,1.89S33.84,21.62,33.84,45.93v35.15c-13.48,9.89-23.49,23.8-28.6,39.72-5.11,15.92-5.05,33.05,.16,48.94s15.32,29.72,28.86,39.53c13.55,9.8,29.85,15.07,46.57,15.06,11.5-.01,22.79-2.52,33.13-7.29-2.11-1.96-4.14-4.02-6.06-6.2l-7.31-8.28,6.35-9.04,2.27-3.24c3.33-4.73,6.42-8.46,9.74-11.73,7.04-6.93,14.95-12.38,23.36-16.23-7.5-7.62-12.13-18.05-12.13-29.56,0-13.27,6.17-25.12,15.78-32.86Zm-53.46,46.21v26.05c0,4.2-2.24,8.07-5.87,10.17-3.63,2.1-8.11,2.1-11.74,0-3.63-2.1-5.87-5.98-5.87-10.17v-26.05c-4.89-3.61-8.07-9.39-8.07-15.94,0-10.94,8.87-19.82,19.82-19.82s19.82,8.87,19.82,19.82c0,6.54-3.18,12.33-8.07,15.94Zm20.48-73.58c-10.15-4.52-21.13-6.85-32.24-6.85s-22.09,2.33-32.24,6.85v-26.6h-.09c0-16.26,14.47-29.47,32.29-29.47s32.29,13.23,32.29,29.47v26.6Z"/></svg>