<?xml version="1.0" encoding="UTF-8"?><svg id="Layer_1" xmlns="http://www.w3.org/2000/svg" viewBox="0 0 174.53 239.92"><defs><style>.cls-1{fill:#626b7a;}</style></defs><path class="cls-1" d="M87.27,239.92c17.38,0,32.06-11.2,36.7-27.04H50.57c4.64,15.84,19.32,27.04,36.7,27.04h0Z"/><path class="cls-1" d="M13.14,105.48v61.01c-1.96,1.2-6.61,6.77-10.57,11.76-4.87,6.14-2.58,15.47,4.77,18.18,.98,.36,1.97,.57,2.94,.57,0,0,48.75-.28,48.75,0,0,0,56.73,.28,56.73,0h48.47c.98,0,1.97-.21,2.94-.57,7.36-2.7,9.64-12.04,4.77-18.18-3.96-4.99-8.61-10.56-10.57-11.76v-61.01c0-37.63-21.95-69.28-55.88-77.55,1.13-2.55,1.7-5.1,1.71-7.93,.02-9.35-6.17-17.51-15.31-19.5-13.2-2.87-24.61,6.82-24.61,19.45,0,2.85,.57,5.42,1.71,7.98C35.09,36.21,13.14,67.85,13.14,105.48h0Z"/></svg>