<svg width="132" height="69" xmlns="http://www.w3.org/2000/svg" xmlns:xlink="http://www.w3.org/1999/xlink"><defs><path id="path-1" d="M0 .682h22.55V32H0z"/><path id="path-3" d="M0 68.762h131.674V0H0z"/></defs><g id="Page-1" stroke="none" stroke-width="1" fill="none" fill-rule="evenodd"><g id="Home---blue-white" transform="translate(-345 -66)"><g id="Logo" transform="translate(345 66)"><g id="Group-3" transform="translate(0 36.762)"><mask id="mask-2" fill="#fff"><use xlink:href="#path-1"/></mask><path d="M14.899 27.481c2.088 0 3.132-1.267 3.132-3.803V8.421a1.952 1.952 0 01-.045-.313c-.12-1.103-.41-1.863-.871-2.28-.464-.418-1.247-.628-2.35-.628H4.52v22.281h10.379zM0 32.001V.681h15.972c1.998 0 3.595.693 4.787 2.08 1.194 1.387 1.789 3.11 1.789 5.167v16.107c0 3.431-1.43 5.832-4.295 7.204-1.073.506-2.117.76-3.13.76H0z" id="Fill-1" fill="#323232" mask="url(#mask-2)"/></g><path d="M32.795 56.906l11.454-5.324v-.365c0-1.367-.795-2.051-2.38-2.051h-6.425c-1.766 0-2.649.99-2.649 2.97v4.77zm-3.892 5.683V52.074c0-4.533 2.43-6.8 7.292-6.8h5.817c1.908 0 3.414.529 4.518 1.588 1.104 1.06 1.656 2.529 1.656 4.408v2.775l-15.392 7.154.001 1.03c.18 1.015.418 1.686.718 2.013.36.418 1.016.627 1.974.627h12.967v3.893H35.301c-1.85 0-3.379-.565-4.587-1.7-1.207-1.133-1.81-2.624-1.81-4.473z" id="Fill-4" fill="#323232"/><mask id="mask-4" fill="#fff"><use xlink:href="#path-3"/></mask><path id="Fill-6" fill="#323232" mask="url(#mask-4)" d="M54.047 68.762h3.892V37.444h-3.892z"/><path d="M64.336 68.762V45.72c0-3.012.745-5.174 2.237-6.487 1.402-1.193 3.653-1.79 6.756-1.79H85.05v4.519H71.538c-.179.03-.446.09-.805.179-1.252.48-1.878 1.499-1.878 3.058v5.756h16.106v4.518H68.855v13.288h-4.519z" id="Fill-8" fill="#323232" mask="url(#mask-4)"/><path id="Fill-9" fill="#323232" mask="url(#mask-4)" d="M89.526 68.762h3.937v-22.55h-3.937z"/><path id="Fill-10" fill="#323232" mask="url(#mask-4)" d="M89.526 41.962h3.937v-4.519h-3.937z"/><path d="M111.77 41.285l-2.832-1.636c.59-1.287.975-2.688 1.112-4.161h3.27a16.108 16.108 0 01-1.55 5.797" id="Fill-11" fill="#A51E8C" mask="url(#mask-4)"/><path d="M98.406 50.407v-3.27a12.85 12.85 0 004.157-1.114l1.638 2.833a16.099 16.099 0 01-5.794 1.551" id="Fill-12" fill="#A51E8C" mask="url(#mask-4)"/><path d="M116.916 44.255l-2.827-1.632a18.755 18.755 0 001.907-7.135h3.265a21.99 21.99 0 01-2.345 8.767" id="Fill-13" fill="#A51E8C" mask="url(#mask-4)"/><path d="M109.277 52.783l-1.632-2.828a18.963 18.963 0 005.223-5.222l2.827 1.633a22.17 22.17 0 01-6.418 6.417" id="Fill-14" fill="#A51E8C" mask="url(#mask-4)"/><path d="M98.406 56.347v-3.264a18.752 18.752 0 007.132-1.909l1.633 2.828a22 22 0 01-8.765 2.345" id="Fill-15" fill="#A51E8C" mask="url(#mask-4)"/><path d="M122.152 47.278l-2.826-1.631a24.76 24.76 0 002.717-10.16h3.26a27.972 27.972 0 01-3.151 11.79" id="Fill-16" fill="#A51E8C" mask="url(#mask-4)"/><path d="M112.3 58.018a28.312 28.312 0 008.63-8.63l-2.826-1.63a24.971 24.971 0 01-7.436 7.434l1.632 2.826z" id="Fill-17" fill="#A51E8C" mask="url(#mask-4)"/><path d="M98.406 62.391V59.13a24.762 24.762 0 0010.155-2.718l1.631 2.826a27.993 27.993 0 01-11.785 3.154" id="Fill-18" fill="#A51E8C" mask="url(#mask-4)"/><path d="M115.375 63.344a34.45 34.45 0 0010.881-10.88l-2.824-1.632a31.142 31.142 0 01-9.689 9.687l1.632 2.825z" id="Fill-19" fill="#A51E8C" mask="url(#mask-4)"/><path d="M98.406 68.541a34.126 34.126 0 0014.862-3.978l-1.632-2.825a30.853 30.853 0 01-13.23 3.541v3.262z" id="Fill-20" fill="#A51E8C" mask="url(#mask-4)"/><path d="M118.502 68.762l-1.63-2.823A37.47 37.47 0 00128.85 53.96l2.824 1.63a40.73 40.73 0 01-13.172 13.17" id="Fill-21" fill="#A51E8C" mask="url(#mask-4)"/><path d="M104.198 19.684l-1.635 2.833a12.868 12.868 0 00-4.157-1.112v-3.271c2.063.154 4.018.695 5.792 1.55" id="Fill-22" fill="#0096AF" mask="url(#mask-4)"/><path d="M110.551 25.148l-2.832 1.635a13.071 13.071 0 00-3.045-3.046l1.635-2.832a16.247 16.247 0 014.242 4.243" id="Fill-23" fill="#0096AF" mask="url(#mask-4)"/><path d="M113.32 33.053h-3.27a12.797 12.797 0 00-1.114-4.162l2.833-1.636a16.053 16.053 0 011.551 5.798" id="Fill-24" fill="#0096AF" mask="url(#mask-4)"/><path d="M82.598 27.256l2.833 1.636a12.822 12.822 0 00-1.112 4.16h-3.271c.154-2.064.694-4.02 1.55-5.796" id="Fill-25" fill="#0096AF" mask="url(#mask-4)"/><path d="M95.962 18.134v3.27a12.855 12.855 0 00-4.158 1.113l-1.636-2.833a16.092 16.092 0 015.794-1.55" id="Fill-26" fill="#0096AF" mask="url(#mask-4)"/><path d="M107.17 14.538l-1.634 2.828a18.755 18.755 0 00-7.13-1.909v-3.264c3.14.171 6.106.998 8.763 2.345" id="Fill-27" fill="#0096AF" mask="url(#mask-4)"/><path d="M115.697 22.177a22.197 22.197 0 00-6.418-6.418l-1.632 2.828a18.998 18.998 0 015.222 5.223l2.828-1.633z" id="Fill-28" fill="#0096AF" mask="url(#mask-4)"/><path d="M77.452 24.285l2.827 1.632a18.741 18.741 0 00-1.907 7.136h-3.266a21.995 21.995 0 012.346-8.768" id="Fill-29" fill="#0096AF" mask="url(#mask-4)"/><path d="M85.091 15.758l1.632 2.828a18.967 18.967 0 00-5.222 5.222l-2.828-1.634a22.265 22.265 0 016.418-6.416" id="Fill-30" fill="#0096AF" mask="url(#mask-4)"/><path d="M95.962 12.193v3.264a18.76 18.76 0 00-7.132 1.909l-1.633-2.827a21.993 21.993 0 018.765-2.346" id="Fill-31" fill="#0096AF" mask="url(#mask-4)"/><path d="M110.192 9.303l-1.632 2.826a24.733 24.733 0 00-10.153-2.717V6.15a27.988 27.988 0 0111.785 3.153" id="Fill-32" fill="#0096AF" mask="url(#mask-4)"/><path d="M82.069 10.523a28.23 28.23 0 00-8.63 8.629l2.825 1.632a25.075 25.075 0 013.322-4.112 25.109 25.109 0 014.115-3.324l-1.632-2.825z" id="Fill-33" fill="#0096AF" mask="url(#mask-4)"/><path d="M95.962 6.15v3.262a24.743 24.743 0 00-10.155 2.718l-1.632-2.826A27.998 27.998 0 0195.962 6.15" id="Fill-34" fill="#0096AF" mask="url(#mask-4)"/><path d="M78.993 5.196a34.498 34.498 0 00-10.882 10.88l2.825 1.632a31.236 31.236 0 014.304-5.382 31.265 31.265 0 015.384-4.305l-1.63-2.825z" id="Fill-35" fill="#0096AF" mask="url(#mask-4)"/><path d="M95.962 0A34.1 34.1 0 0081.1 3.978l1.631 2.824a30.875 30.875 0 0113.231-3.54V0z" id="Fill-36" fill="#0096AF" mask="url(#mask-4)"/></g></g></g></svg>