<?xml version="1.0" encoding="UTF-8"?><svg xmlns="http://www.w3.org/2000/svg" xmlns:xlink="http://www.w3.org/1999/xlink" viewBox="0 0 640.69 699.93"><defs><style>.l{fill:url(#d);}.m{fill:#be946d;}.n{fill:url(#h);filter:url(#j);stroke:url(#i);stroke-width:2.42px;}.n,.o{stroke-miterlimit:10;}.o{fill:none;filter:url(#f);stroke:url(#e);stroke-width:2.04px;}</style><radialGradient id="d" cx="111.65" cy="217.74" fx="111.65" fy="217.74" r="354.31" gradientTransform="matrix(1, 0, 0, 1, 0, 0)" gradientUnits="userSpaceOnUse"><stop offset="0" stop-color="#ffe490"/><stop offset=".11" stop-color="#fade8d"/><stop offset=".25" stop-color="#eccd85"/><stop offset=".41" stop-color="#d6b178"/><stop offset=".54" stop-color="#c1976d"/><stop offset=".85" stop-color="#c1976d" stop-opacity="0"/></radialGradient><linearGradient id="e" x1="11.32" y1="204.35" x2="158.38" y2="204.35" gradientTransform="matrix(1, 0, 0, 1, 0, 0)" gradientUnits="userSpaceOnUse"><stop offset="0" stop-color="#ffe38f"/><stop offset=".12" stop-color="#f5d689"/><stop offset=".49" stop-color="#d8b37a"/><stop offset=".8" stop-color="#c69d70"/><stop offset="1" stop-color="#c0966d"/></linearGradient><filter id="f" filterUnits="userSpaceOnUse"><feOffset dx="0" dy="0"/><feGaussianBlur result="g" stdDeviation="2.49"/><feFlood flood-color="#c0966d" flood-opacity="1"/><feComposite in2="g" operator="in"/><feComposite in="SourceGraphic"/></filter><linearGradient id="h" x1="9.77" y1="129.27" x2="407.44" y2="526.93" gradientTransform="matrix(1, 0, 0, 1, 0, 0)" gradientUnits="userSpaceOnUse"><stop offset="0" stop-color="#fff"/><stop offset=".14" stop-color="#f1f1f1"/><stop offset=".21" stop-color="#fff"/><stop offset=".29" stop-color="#dfdfdf"/><stop offset=".37" stop-color="#cacaca"/><stop offset=".42" stop-color="#c3c3c3"/><stop offset=".52" stop-color="#d5d5d5"/><stop offset=".65" stop-color="#e4e4e4"/><stop offset=".79" stop-color="#eee"/><stop offset="1" stop-color="#f1f1f1"/></linearGradient><linearGradient id="i" x1="11.12" y1="204.35" x2="158.57" y2="204.35" gradientTransform="matrix(1, 0, 0, 1, 0, 0)" gradientUnits="userSpaceOnUse"><stop offset="0" stop-color="#c0966d"/><stop offset=".2" stop-color="#c69d70"/><stop offset=".51" stop-color="#d8b37a"/><stop offset=".88" stop-color="#f5d689"/><stop offset="1" stop-color="#ffe38f"/></linearGradient><filter id="j" filterUnits="userSpaceOnUse"><feOffset dx="0" dy="5.66"/><feGaussianBlur result="k" stdDeviation="3.23"/><feFlood flood-color="#000" flood-opacity=".29"/><feComposite in2="k" operator="in"/><feComposite in="SourceGraphic"/></filter></defs><g id="a"/><g id="b"><g id="c"><g><path class="l" d="M576.93,427.86c-20.98,0-39.62,10.19-51.25,25.88l-85.8-49.99v-110.38l85.06-48.24c11.56,16.28,30.55,26.93,52,26.93,35.15,0,63.76-28.6,63.76-63.76s-28.6-63.76-63.76-63.76-63.76,28.6-63.76,63.76c0,8.88,1.83,17.35,5.13,25.04l-85.94,48.74-95.41-55.94V127.14c19.87-2.03,38.5-13.29,49.08-31.94,17.34-30.58,6.57-69.57-24.01-86.91-30.58-17.34-69.57-6.57-86.91,24-17.34,30.58-6.57,69.57,24.01,86.91,7.73,4.38,16,6.97,24.31,7.89v99.06l-94.04,55.14-86.23-50.24c2.71-7.07,4.21-14.74,4.21-22.75,0-35.15-28.6-63.76-63.75-63.76s-63.76,28.6-63.76,63.76,28.6,63.76,63.76,63.76c22.33,0,41.99-11.54,53.39-28.97l83.52,48.66v110.48l-87.24,49.48c-11.7-14.53-29.61-23.85-49.67-23.85-35.15,0-63.76,28.6-63.76,63.75s28.6,63.76,63.76,63.76,63.75-28.6,63.75-63.76c0-10.25-2.44-19.93-6.76-28.52l85.56-48.52,97.27,57.04v101.19c-31.92,3.45-56.86,30.55-56.86,63.38,0,35.15,28.6,63.76,63.75,63.76s63.76-28.6,63.76-63.76c0-32.92-25.08-60.09-57.14-63.41v-101.15l95.96-56.29,85.93,50.06c-3.63,8.01-5.67,16.89-5.67,26.24,0,35.16,28.6,63.76,63.76,63.76s63.76-28.6,63.76-63.76-28.6-63.75-63.76-63.75Zm0-270.63c28.16,0,51.08,22.91,51.08,51.08s-22.91,51.08-51.08,51.08-51.08-22.91-51.08-51.08,22.91-51.08,51.08-51.08ZM83.62,542.69c-28.16,0-51.08-22.91-51.08-51.08s22.91-51.08,51.08-51.08,51.08,22.91,51.08,51.08-22.91,51.08-51.08,51.08ZM305.38,108.17c-24.5-13.89-33.13-45.13-19.23-69.63,13.89-24.5,45.13-33.13,69.63-19.23,24.5,13.89,33.13,45.13,19.23,69.63-13.89,24.5-45.13,33.13-69.63,19.23Zm-71.34,295.35v-101.36l89.4,52.42v101.35l-89.4-52.41Zm147.38,232.65c0,28.16-22.91,51.08-51.08,51.08s-51.08-22.91-51.08-51.08,22.91-51.08,51.08-51.08,51.08,22.91,51.08,51.08Zm-51.22-293.3l-89.56-52.51,89.56-52.51,89.56,52.51-29.72,17.43-59.84,35.09Zm96.16,59.97c-.23,.32-.43,.65-.61,1.01l-88.8,52.08v-101.35l89.4-52.42v100.69Zm150.57,139.84c-28.16,0-51.08-22.91-51.08-51.08s22.91-51.08,51.08-51.08,51.08,22.91,51.08,51.08-22.91,51.08-51.08,51.08Z"/><rect class="o" x="12.34" y="131.83" width="145.02" height="145.02" rx="72.51" ry="72.51"/><rect class="n" x="12.34" y="131.83" width="145.02" height="145.02" rx="72.51" ry="72.51"/><g><path class="m" d="M118.71,214.07c0,15.38-12.52,27.9-27.9,27.9-1.78,0-3.52-.17-5.2-.5-.28-.05-.57-.11-.85-.17-.1-.02-.21-.04-.31-.07-.23-.05-.47-.11-.7-.17h-.02c-.63-.16-1.22-.35-1.83-.54-.31-.11-.62-.22-.93-.34s-.62-.24-.92-.36c-.31-.13-.63-.27-.93-.41-.38-.16-.74-.35-1.1-.54h-15.07l2.41-13.36,1.47-8.16h3.65l-1.31,7.26-1.04,5.72-.89,4.95h12.19c.18,.11,.36,.2,.55,.29,.26,.13,.5,.26,.75,.36,.5,.24,1.01,.45,1.54,.65,.26,.1,.52,.19,.79,.28,1.21,.42,2.47,.74,3.75,.95,1.3,.22,2.63,.34,3.99,.34,.29,0,.58,0,.88-.02,9.61-.35,17.79-6.35,21.32-14.78,.78-1.87,1.34-3.87,1.63-5.96,.15-1.08,.23-2.18,.23-3.3,0-.18,0-.35,0-.53v-.04h-9.98v.16c0,7.9-6.43,14.33-14.33,14.33s-14.34-6.43-14.34-14.33v-.16c.02-1.33,.21-2.61,.58-3.83,.67-2.33,1.91-4.4,3.57-6.07-2.2-2.19-4.12-4.67-5.67-7.41-.21-.35-.4-.71-.59-1.07-.18-.36-.36-.73-.54-1.09-.22-.47-.43-.93-.62-1.4-.19-.44-.37-.89-.53-1.34-.55-1.48-.99-2.99-1.32-4.54-.29-1.26-.49-2.54-.62-3.83-.12-1.13-.17-2.28-.17-3.42v-.81H35.84c-.85-1.25-1.66-2.53-2.41-3.84h40.69v4.64c0,3.74,.67,7.36,2.01,10.81,.26,.7,.56,1.39,.88,2.06,.23,.5,.49,.98,.74,1.45,1.51,2.79,3.43,5.28,5.66,7.42,1.23,1.19,2.56,2.26,3.98,3.21-1.34,.46-2.56,1.21-3.56,2.17-.91,.86-1.65,1.9-2.17,3.06-.53,1.17-.84,2.47-.86,3.83,0,.06,0,.11,0,.16,0,5.37,4.37,9.75,9.75,9.75s9.74-4.37,9.74-9.75c0-.06,0-.11,0-.16-.02-1.53-.4-2.98-1.06-4.26,1.54,.26,3.1,.4,4.68,.42,.14,0,.27,0,.41,0h14.08c.09,.6,.16,1.2,.21,1.81,0,.06,.02,.12,.02,.16,0,.16,.02,.32,.03,.48,.02,.26,.03,.53,.04,.81v.06c0,.16,.02,.35,.02,.52v.04c0,.18,0,.34,0,.52Z"/><path class="m" d="M67.49,186.75h-25.21c-1.17-1.23-2.28-2.52-3.33-3.84h27.92c.13,1.3,.33,2.58,.61,3.84Z"/><path class="m" d="M70.51,195.12h-18.65c-1.69-1.2-3.31-2.48-4.87-3.84h21.83c.16,.45,.34,.89,.53,1.34,.19,.47,.4,.94,.62,1.4,.15,.32,.31,.64,.47,.95,.02,.05,.05,.1,.07,.15Z"/><path class="m" d="M117.23,205.07s0-.02-.02-.05c-.04-.12-.07-.23-.12-.35-.17-.46-.35-.91-.53-1.35v-.02l-.27-.62-.1-.22c-.07-.15-.13-.31-.21-.46-.09-.19-.19-.37-.28-.55-.04-.08-.08-.17-.13-.25-.04-.07-.07-.15-.11-.22-.22-.4-.44-.81-.68-1.2-.08-.13-.16-.26-.24-.39-.02-.03-.04-.07-.07-.1-.1-.16-.2-.32-.31-.49-.03-.06-.07-.12-.1-.16,0-.02-.02-.04-.03-.05-.34-.51-.69-1-1.05-1.48-.07-.09-.15-.18-.22-.28-.32-.4-.64-.8-.98-1.18-.07-.09-.15-.17-.22-.26-.28-.31-.56-.61-.86-.91-.1-.11-.2-.21-.3-.3-.04-.03-.07-.07-.12-.11,0-.02-.02-.02-.02-.02-.16-.16-.34-.33-.51-.49-.08-.07-.16-.14-.25-.22-.22-.21-.45-.4-.67-.59-.23-.2-.46-.39-.69-.58-.08-.06-.16-.12-.24-.18-.41-.32-.83-.63-1.26-.92-.1-.07-.21-.14-.3-.21-.23-.16-.46-.31-.7-.45-.18-.12-.36-.22-.55-.34-.12-.07-.24-.15-.36-.22-.25-.14-.5-.28-.76-.42-.21-.12-.43-.22-.64-.33-.02,0-.02-.02-.03-.02-.31-.16-.63-.31-.95-.45-.21-.1-.44-.2-.66-.29-.16-.07-.31-.14-.47-.2-.16-.07-.31-.12-.48-.19-.27-.11-.53-.21-.81-.3-.2-.07-.39-.14-.59-.21,0,0-.02,0-.02,0-.26-.08-.53-.16-.8-.24-.13-.04-.26-.07-.4-.12-.17-.05-.34-.09-.52-.13-.22-.06-.44-.12-.67-.16h-.02c-.22-.05-.44-.1-.67-.15-.12-.02-.24-.04-.35-.07-.51-.09-1.03-.18-1.55-.25-.69-.09-1.4-.16-2.11-.19-.23,0-.48-.02-.71-.02,0,0-.02,0-.03,0-.22-.02-.44-.02-.67-.02-.1,0-.2,0-.3,0-.1,0-.2,0-.3,0-.07,0-.13,0-.2,0-.22,.02-.44,.02-.66,.03-.77,.03-1.51,.11-2.26,.21,0,0,1.91,3.66,2.16,3.64s.52-.03,.77-.03c.26,0,.5-.02,.76-.02h.02c.82,0,1.63,.04,2.43,.12,.21,.02,.41,.04,.61,.07,.2,.02,.4,.05,.6,.08,.2,.02,.39,.06,.59,.1,.63,.11,1.23,.24,1.83,.4,.16,.03,.33,.08,.49,.13,.38,.11,.76,.22,1.12,.35,.19,.06,.37,.12,.56,.2,.33,.12,.67,.25,.98,.39,4.9,2.03,8.97,5.64,11.6,10.2h-7.35c-2.85,0-5.62-.54-8.18-1.54-.16-.07-.32-.14-.49-.21-4.5-1.88-8.52-5.11-10.82-9.52-.45-.86-1.28-2.64-1.65-3.54-.99-2.43-1.35-5.04-1.35-7.69v-12.6H29.55c.52,1.29,1.08,2.57,1.7,3.83h46.72v8.77c0,3.1,.53,6.12,1.58,9h0c.23,.63,.48,1.25,.76,1.85,.26,.57,.53,1.11,.82,1.65h0c1.6,2.98,3.75,5.57,6.27,7.68,4.09,3.43,9.19,5.59,14.64,6.06h0c.16,.02,.32,.02,.48,.03,.6,.05,1.19,.07,1.79,.07h13.2c-.08-.24-.18-.5-.27-.76Z"/></g></g></g></g></svg>