<svg xmlns="http://www.w3.org/2000/svg" viewBox="0 0 84 24">
  <defs/>
    <path fill="#232c45" d="M20 20.23L22.41 6.4h3.73l2.91 7.37 2.89-7.37h3.73l2.46 13.83h-3.75l-1.25-8-3.43 8h-1.5l-3.25-8-1.25 8zm19.82-13a1.8 1.8 0 01.15-.73 2.08 2.08 0 01.43-.59 2.16 2.16 0 01.6-.43 2.14 2.14 0 01.76-.14 1.94 1.94 0 011.39.55 1.87 1.87 0 01.42.59 1.66 1.66 0 01.16.73 1.61 1.61 0 01-.16.72 1.81 1.81 0 01-.42.6 2.05 2.05 0 01-.63.4 1.91 1.91 0 01-.76.15 1.94 1.94 0 01-.76-.15 2.13 2.13 0 01-.62-.4 2 2 0 01-.43-.6 1.75 1.75 0 01-.18-.72zm3.71 3.61v9.41H40v-9.43zm2.2 0h3.48v1.54a3.92 3.92 0 011.37-1.29 3.83 3.83 0 011.89-.45h.29a1.82 1.82 0 01.38 0v3.17a3.43 3.43 0 00-1.5-.33 2.29 2.29 0 00-1.82.69 2.93 2.93 0 00-.61 2v4h-3.53zm8.78 0h3.48v1.54a3.92 3.92 0 011.37-1.29 3.76 3.76 0 011.88-.45h.3a1.89 1.89 0 01.38 0v3.17a3.51 3.51 0 00-1.51-.33 2.28 2.28 0 00-1.81.69 2.93 2.93 0 00-.61 2v4h-3.53zm8.46 4.62a4.36 4.36 0 01.45-1.95 4.7 4.7 0 011.23-1.58 5.81 5.81 0 011.88-1.05 6.93 6.93 0 012.37-.39 7.21 7.21 0 012.36.38 6.17 6.17 0 011.89 1 4.83 4.83 0 011.24 1.6 4.77 4.77 0 01.44 2 4.62 4.62 0 01-.45 2 5 5 0 01-1.24 1.6 5.69 5.69 0 01-1.9 1 7.45 7.45 0 01-2.4.37 7 7 0 01-2.34-.37 5.44 5.44 0 01-1.86-1 4.88 4.88 0 01-1.22-1.63 4.82 4.82 0 01-.5-2zm3.68 0a2.05 2.05 0 00.18.87 2.58 2.58 0 00.48.69 2.07 2.07 0 00.72.46 2.28 2.28 0 00.87.16 2.37 2.37 0 00.88-.16 2.12 2.12 0 00.71-.46 2.38 2.38 0 00.48-.69 2.07 2.07 0 000-1.69 2.2 2.2 0 00-.48-.68 2.12 2.12 0 00-.71-.46 2.38 2.38 0 00-.88-.17 2.29 2.29 0 00-.87.17 2.07 2.07 0 00-.72.46 2.48 2.48 0 00-.48.67 2 2 0 00-.23.85zm10-4.66h3.48v1.54a4 4 0 011.37-1.29 3.83 3.83 0 011.89-.45h.29a1.82 1.82 0 01.38 0v3.17a3.43 3.43 0 00-1.5-.33 2.29 2.29 0 00-1.82.69 3 3 0 00-.61 2v4h-3.54zM10.11 4.65V.8L6.74 0v3.85l-3.37-.8v3.86L0 6.11v12.43l3.37.81v3.85l3.37.8v-3.85l3.37.8v-3.86l3.37.8V5.46zm-2.7 13.09L2.7 16.62V9.31l4.71 1.13z" />
</svg>