<?xml version="1.0" encoding="utf-8"?>
<!-- Generator: Adobe Illustrator 25.4.1, SVG Export Plug-In . SVG Version: 6.00 Build 0)  -->
<svg version="1.1" id="Layer_1" xmlns="http://www.w3.org/2000/svg" xmlns:xlink="http://www.w3.org/1999/xlink" x="0px" y="0px"
	 viewBox="0 0 1080 1080" style="enable-background:new 0 0 1080 1080;" xml:space="preserve">
<style type="text/css">
	.st0{fill:#C69C6D;}
</style>
<g>
	<g>
		<g>
			<path class="st0" d="M315.95,672.38h-57.9v51.54h-14.84V610.23h14.84v49.91h57.9v-49.91h14.84v113.69h-14.84V672.38z"/>
			<path class="st0" d="M417.09,622.3h-46.32v38h41.43v12.23h-41.43v39.15h46.32v12.23h-61.16V610.07h61.16V622.3z"/>
			<path class="st0" d="M476.3,610.23c26.75,0,39.47,14.84,39.47,33.44c0,14.52-7.99,28.38-27.08,32.62l28.55,47.63h-17.78
				l-27.07-46.49h-17.94v46.49H439.6V610.23H476.3z M476.3,622.47h-21.86v43.06h21.86c16.8,0,24.14-9.13,24.14-21.86
				C500.44,630.78,493.27,622.47,476.3,622.47z"/>
			<path class="st0" d="M538.78,611.05h15.98l41.76,93.3l41.76-93.3h15.82v112.87h-14.84v-84.16l-37.52,84.16H591.3l-37.68-84.33
				v84.33h-14.84V611.05z"/>
			<path class="st0" d="M740.39,622.3h-46.32v38h41.43v12.23h-41.43v39.15h46.32v12.23h-61.16V610.07h61.16V622.3z"/>
			<path class="st0" d="M798.95,725.06c-22.83,0-38.98-12.72-39.31-31.48h15.82c0.98,9.46,7.67,18.92,23.49,18.92
				c14.35,0,22.84-8.16,22.84-18.92c0-30.66-61.49-11.09-61.49-53.33c0-18.76,15.17-31.48,37.68-31.48
				c21.69,0,35.88,11.91,37.68,29.2h-16.31c-0.98-7.67-8.15-16.31-22.02-16.47c-12.23-0.32-21.86,6.04-21.86,18.27
				c0,29.36,61.33,11.09,61.33,53.17C836.79,709.08,823.58,725.06,798.95,725.06z"/>
		</g>
		<g>
			<path class="st0" d="M315.64,799.04h-9.79v21.26h-6.65v-50.92h16.44c11.98,0,17.6,6.57,17.6,14.9
				C333.24,792.03,328.27,799.04,315.64,799.04z M315.64,793.56c7.6,0,10.81-3.58,10.81-9.28c0-5.92-3.22-9.42-10.81-9.42h-9.79
				v18.7H315.64z"/>
			<path class="st0" d="M372.54,769.38c11.98,0,17.68,6.65,17.68,14.97c0,6.5-3.58,12.71-12.13,14.61l12.79,21.33h-7.96
				l-12.13-20.82h-8.03v20.82h-6.65v-50.92H372.54z M372.54,774.86h-9.79v19.29h9.79c7.52,0,10.81-4.09,10.81-9.79
				C383.35,778.59,380.14,774.86,372.54,774.86z"/>
			<path class="st0" d="M438.21,820.81c-14.32,0-25.57-10.74-25.57-26.01c0-15.27,11.25-26.01,25.57-26.01
				c14.39,0,25.57,10.74,25.57,26.01C463.78,810.07,452.6,820.81,438.21,820.81z M438.21,815.04c10.74,0,18.77-7.81,18.77-20.23
				c0-12.49-8.04-20.23-18.77-20.23c-10.74,0-18.77,7.74-18.77,20.23C419.44,807.23,427.47,815.04,438.21,815.04z"/>
			<path class="st0" d="M484.01,769.38h34.48v5.4h-13.88v45.51h-6.65v-45.51h-13.95V769.38z"/>
			<path class="st0" d="M564.36,820.81c-14.32,0-25.57-10.74-25.57-26.01c0-15.27,11.25-26.01,25.57-26.01
				c14.39,0,25.57,10.74,25.57,26.01C589.93,810.07,578.75,820.81,564.36,820.81z M564.36,815.04c10.74,0,18.77-7.81,18.77-20.23
				c0-12.49-8.04-20.23-18.77-20.23c-10.74,0-18.77,7.74-18.77,20.23C545.59,807.23,553.62,815.04,564.36,815.04z"/>
			<path class="st0" d="M636.24,768.73c11.03,0,19.8,5.55,23.6,15.41h-7.96c-2.78-6.14-8.18-9.57-15.63-9.57
				c-10.67,0-18.63,7.74-18.63,20.23c0,12.42,7.96,20.16,18.63,20.16c7.45,0,12.86-3.43,15.63-9.5h7.96
				c-3.8,9.79-12.57,15.27-23.6,15.27c-14.24,0-25.42-10.67-25.42-25.93C610.82,779.54,621.99,768.73,636.24,768.73z"/>
			<path class="st0" d="M707.39,820.81c-14.32,0-25.57-10.74-25.57-26.01c0-15.27,11.25-26.01,25.57-26.01
				c14.39,0,25.57,10.74,25.57,26.01C732.95,810.07,721.78,820.81,707.39,820.81z M707.39,815.04c10.74,0,18.77-7.81,18.77-20.23
				c0-12.49-8.04-20.23-18.77-20.23c-10.74,0-18.77,7.74-18.77,20.23C688.61,807.23,696.65,815.04,707.39,815.04z"/>
			<path class="st0" d="M762.98,769.38v45.51h17.82v5.41h-24.47v-50.92H762.98z"/>
		</g>
	</g>
	<g>
		<path class="st0" d="M662.98,431.15c0,56.08-45.63,101.71-101.71,101.71c-6.5,0-12.82-0.63-18.96-1.83
			c-1.02-0.18-2.07-0.39-3.09-0.63c-0.36-0.09-0.75-0.15-1.14-0.27c-0.84-0.18-1.71-0.39-2.55-0.63h-0.06
			c-2.28-0.57-4.46-1.26-6.68-1.98c-1.14-0.39-2.25-0.81-3.39-1.23c-1.14-0.42-2.25-0.87-3.36-1.32c-1.14-0.48-2.28-0.99-3.39-1.5
			c-1.38-0.6-2.7-1.26-4.01-1.98h-54.94l8.78-48.71l5.36-29.75h13.3l-4.76,26.48l-3.78,20.85l-3.24,18.04h44.43
			c0.66,0.39,1.32,0.72,2.01,1.05c0.93,0.48,1.83,0.93,2.73,1.32c1.83,0.87,3.68,1.65,5.6,2.37c0.96,0.36,1.89,0.69,2.88,1.02
			c4.4,1.53,8.99,2.7,13.69,3.48c4.73,0.81,9.59,1.23,14.56,1.23c1.05,0,2.13-0.03,3.21-0.06c35.02-1.29,64.86-23.16,77.74-53.9
			c2.85-6.83,4.88-14.11,5.93-21.72c0.54-3.92,0.84-7.94,0.84-12.04c0-0.66,0-1.26-0.03-1.92v-0.15h-36.4v0.6
			c0,28.82-23.43,52.25-52.25,52.25c-28.82,0-52.28-23.43-52.28-52.25v-0.6c0.06-4.85,0.78-9.53,2.1-13.96
			c2.43-8.48,6.98-16.03,13-22.14c-8.03-7.97-15.01-17.02-20.67-27.02c-0.75-1.26-1.47-2.58-2.16-3.89
			c-0.66-1.32-1.32-2.67-1.98-3.98c-0.81-1.71-1.56-3.39-2.25-5.12c-0.69-1.62-1.35-3.24-1.95-4.88c-2.01-5.39-3.62-10.9-4.82-16.54
			c-1.05-4.58-1.77-9.26-2.25-13.96c-0.42-4.13-0.63-8.3-0.63-12.46v-2.94H360.85c-3.09-4.55-6.05-9.23-8.78-13.99h148.36v16.93
			c0,13.63,2.46,26.84,7.34,39.4c0.96,2.55,2.04,5.06,3.21,7.52c0.84,1.83,1.77,3.57,2.7,5.27c5.51,10.16,12.49,19.26,20.64,27.05
			c4.49,4.34,9.35,8.24,14.5,11.71c-4.88,1.68-9.32,4.4-12.97,7.91c-3.33,3.15-6.02,6.92-7.91,11.14
			c-1.95,4.25-3.06,8.99-3.12,13.96c-0.03,0.21-0.03,0.39-0.03,0.6c0,19.59,15.94,35.53,35.53,35.53c19.56,0,35.5-15.94,35.5-35.53
			c0-0.21,0-0.39-0.03-0.6c-0.06-5.57-1.47-10.85-3.86-15.52c5.6,0.93,11.29,1.47,17.05,1.53c0.51,0.03,0.99,0.03,1.5,0.03h51.32
			c0.33,2.19,0.6,4.37,0.75,6.59c0.03,0.21,0.06,0.42,0.09,0.6c0.03,0.6,0.09,1.17,0.12,1.74c0.06,0.96,0.12,1.95,0.15,2.94v0.21
			c0.03,0.6,0.06,1.26,0.06,1.89v0.15C662.98,429.89,662.98,430.49,662.98,431.15z"/>
		<path class="st0" d="M476.24,331.55h-91.9c-4.25-4.5-8.31-9.18-12.14-13.99H474C474.48,322.29,475.2,326.96,476.24,331.55z"/>
		<path class="st0" d="M487.25,362.08h-68c-6.15-4.36-12.08-9.05-17.77-13.99h79.6c0.6,1.64,1.24,3.26,1.93,4.88
			c0.69,1.72,1.45,3.41,2.26,5.1c0.55,1.17,1.14,2.33,1.72,3.48C487.08,361.74,487.16,361.91,487.25,362.08z"/>
		<path class="st0" d="M657.59,398.35c0-0.06-0.03-0.09-0.06-0.18c-0.15-0.42-0.27-0.84-0.42-1.26c-0.63-1.68-1.26-3.33-1.95-4.94
			c0,0,0-0.03,0-0.06c-0.33-0.75-0.66-1.5-0.99-2.25c-0.12-0.27-0.24-0.54-0.36-0.81c-0.27-0.54-0.48-1.14-0.75-1.68
			c-0.33-0.69-0.69-1.35-1.02-2.01c-0.15-0.3-0.3-0.63-0.48-0.9c-0.15-0.27-0.27-0.54-0.39-0.81c-0.81-1.47-1.62-2.94-2.49-4.37
			c-0.3-0.48-0.57-0.96-0.87-1.44c-0.06-0.12-0.15-0.24-0.24-0.36c-0.36-0.6-0.72-1.17-1.14-1.77c-0.12-0.21-0.24-0.42-0.36-0.6
			c-0.03-0.06-0.09-0.15-0.12-0.18c-1.23-1.86-2.52-3.66-3.83-5.39c-0.27-0.33-0.54-0.66-0.81-1.02c-1.17-1.47-2.34-2.91-3.59-4.31
			c-0.27-0.33-0.54-0.63-0.81-0.93c-1.02-1.14-2.04-2.22-3.12-3.3c-0.36-0.39-0.72-0.75-1.08-1.11c-0.15-0.12-0.27-0.27-0.42-0.39
			c-0.03-0.06-0.06-0.09-0.09-0.09c-0.6-0.6-1.23-1.2-1.86-1.8c-0.3-0.27-0.57-0.51-0.9-0.81c-0.81-0.75-1.65-1.47-2.46-2.16
			c-0.84-0.72-1.68-1.41-2.52-2.1c-0.3-0.21-0.57-0.45-0.87-0.66c-1.5-1.17-3.03-2.28-4.58-3.36c-0.36-0.27-0.75-0.51-1.11-0.78
			c-0.84-0.57-1.68-1.14-2.55-1.65c-0.66-0.42-1.32-0.81-2.01-1.23c-0.45-0.24-0.87-0.54-1.32-0.81c-0.9-0.51-1.83-1.02-2.76-1.53
			c-0.78-0.42-1.56-0.81-2.34-1.2c-0.06-0.03-0.09-0.06-0.12-0.06c-1.14-0.6-2.31-1.14-3.47-1.65c-0.78-0.36-1.59-0.72-2.4-1.05
			c-0.57-0.27-1.14-0.51-1.71-0.72c-0.57-0.24-1.14-0.45-1.74-0.69c-0.99-0.39-1.95-0.75-2.94-1.08c-0.72-0.27-1.44-0.51-2.16-0.75
			c0,0-0.06-0.03-0.09-0.03c-0.96-0.3-1.92-0.6-2.91-0.87c-0.48-0.15-0.96-0.27-1.47-0.42c-0.63-0.18-1.23-0.33-1.89-0.48
			c-0.81-0.21-1.62-0.42-2.43-0.6c0,0-0.03,0-0.06,0c-0.81-0.18-1.62-0.36-2.46-0.54c-0.42-0.09-0.87-0.15-1.29-0.24
			c-1.86-0.33-3.74-0.66-5.66-0.9c-2.52-0.33-5.09-0.57-7.7-0.69c-0.84-0.03-1.74-0.06-2.58-0.09c-0.03-0.03-0.06-0.03-0.12,0
			c-0.81-0.06-1.62-0.06-2.46-0.06c-0.36,0-0.72,0-1.11,0.03c-0.36-0.03-0.72,0-1.08,0.03c-0.24-0.03-0.48-0.03-0.72,0
			c-0.81,0.06-1.62,0.06-2.4,0.12c-2.79,0.12-5.51,0.39-8.24,0.75c0,0,6.95,13.33,7.88,13.27c0.93-0.06,1.89-0.12,2.82-0.12
			c0.93-0.03,1.83-0.06,2.76-0.06h0.09c3,0,5.96,0.15,8.87,0.45c0.75,0.09,1.5,0.15,2.22,0.27c0.72,0.06,1.47,0.18,2.19,0.3
			c0.72,0.09,1.44,0.21,2.16,0.36c2.28,0.39,4.49,0.87,6.68,1.47c0.6,0.12,1.2,0.3,1.8,0.48c1.38,0.39,2.76,0.81,4.1,1.29
			c0.69,0.21,1.35,0.45,2.04,0.72c1.2,0.45,2.43,0.9,3.59,1.41c17.86,7.4,32.72,20.55,42.3,37.18h-26.81
			c-10.4,0-20.49-1.98-29.84-5.63c-0.57-0.27-1.17-0.51-1.8-0.75c-16.42-6.86-31.08-18.62-39.46-34.72
			c-1.64-3.15-4.68-9.61-6.02-12.91c-3.61-8.87-4.94-18.36-4.94-28.04v-45.93H337.9c1.89,4.7,3.95,9.38,6.2,13.96h170.35v31.97
			c0,11.32,1.92,22.32,5.75,32.8v0.03c0.84,2.28,1.74,4.52,2.76,6.71c0.93,2.07,1.92,4.04,3,6.02v0.03
			c5.84,10.85,13.66,20.28,22.86,27.98c14.92,12.49,33.49,20.37,53.36,22.11h0.03c0.57,0.06,1.17,0.09,1.74,0.12
			c2.19,0.18,4.34,0.24,6.53,0.24h48.11C658.31,400.23,657.92,399.31,657.59,398.35z"/>
	</g>
</g>
</svg>
