<svg xmlns="http://www.w3.org/2000/svg" id="Layer_1" data-name="Layer 1" viewBox="135.88 275.95 808.22 528.12"><defs><style>.cls-1,.cls-4{opacity:0.66;}.cls-2,.cls-4{fill:#bdd0fb;}.cls-3{fill:#cedcfc;}.cls-10,.cls-5,.cls-9{fill:#fff;}.cls-6{fill:#c69c6d;}.cls-7{fill:#1a2e35;}.cls-8{fill:none;stroke:#c69c6d;stroke-linecap:round;stroke-linejoin:round;stroke-width:4.32px;stroke-dasharray:0.44 13.93;}.cls-9{opacity:0.76;}.cls-10{opacity:0.5;}</style></defs><g class="cls-1"><rect class="cls-2" x="310.03" y="441.58" width="35.4" height="26.12"/><rect class="cls-2" x="310.03" y="487.61" width="35.4" height="26.12"/><rect class="cls-2" x="310.03" y="533.64" width="35.4" height="26.12"/><rect class="cls-2" x="310.03" y="579.67" width="35.4" height="26.12"/><rect class="cls-2" x="310.03" y="625.71" width="35.4" height="26.12"/><polygon class="cls-2" points="178.35 634.08 173.22 628.68 215.44 589.01 321.26 589.01 321.26 596.46 218.41 596.46 178.35 634.08"/><path class="cls-2" d="M169.79,652.63A15.25,15.25,0,1,1,185,637.38,15.27,15.27,0,0,1,169.79,652.63Zm0-23a7.8,7.8,0,1,0,7.8,7.8A7.81,7.81,0,0,0,169.79,629.58Z"/><rect class="cls-2" x="184.17" y="542.63" width="137.09" height="7.45"/><path class="cls-2" d="M175.42,561.61a15.26,15.26,0,1,1,15.26-15.26A15.28,15.28,0,0,1,175.42,561.61Zm0-23.06a7.8,7.8,0,1,0,7.81,7.8A7.81,7.81,0,0,0,175.42,538.55Z"/><polygon class="cls-2" points="233.67 517.46 159.95 517.46 159.95 510 230.93 510 246.3 496.94 321.26 496.94 321.26 504.4 249.04 504.4 233.67 517.46"/><path class="cls-2" d="M151.14,530.37a15.26,15.26,0,1,1,15.26-15.26A15.27,15.27,0,0,1,151.14,530.37Zm0-23.06a7.8,7.8,0,1,0,7.81,7.8A7.81,7.81,0,0,0,151.14,507.31Z"/><rect class="cls-2" x="224.85" y="448.72" width="96.41" height="7.45"/><path class="cls-2" d="M215.64,467.7a15.26,15.26,0,1,1,15.26-15.25A15.27,15.27,0,0,1,215.64,467.7Zm0-23.06a7.8,7.8,0,1,0,7.8,7.81A7.81,7.81,0,0,0,215.64,444.64Z"/><polygon class="cls-2" points="321.26 642.49 241.02 642.49 228.76 630.48 233.97 625.15 244.07 635.04 321.26 635.04 321.26 642.49"/><path class="cls-2" d="M227.36,636.39a13.55,13.55,0,1,1,13.55-13.54A13.56,13.56,0,0,1,227.36,636.39Zm0-19.64a6.1,6.1,0,1,0,6.09,6.1A6.11,6.11,0,0,0,227.36,616.75Z"/><polygon class="cls-2" points="853.5 458.37 796.87 458.37 796.87 450.91 849.52 450.91 865.04 427.74 922.31 427.74 922.31 435.19 869.03 435.19 853.5 458.37"/><path class="cls-2" d="M917,431.46A13.55,13.55,0,1,1,930.56,445,13.56,13.56,0,0,1,917,431.46Zm19.64,0a6.1,6.1,0,1,0-6.1,6.09A6.1,6.1,0,0,0,936.66,431.46Z"/><polygon class="cls-2" points="881.89 504.4 796.87 504.4 796.87 496.94 878.58 496.94 902.62 470.22 908.15 475.21 881.89 504.4"/><path class="cls-2" d="M895.8,467.48A13.55,13.55,0,1,1,909.34,481,13.56,13.56,0,0,1,895.8,467.48Zm19.64,0a6.1,6.1,0,1,0-6.1,6.09A6.11,6.11,0,0,0,915.44,467.48Z"/><polygon class="cls-2" points="922.31 589.16 877.76 589.16 837.71 549.24 800.12 549.24 800.12 541.79 840.79 541.79 880.84 581.7 922.31 581.7 922.31 589.16"/><path class="cls-2" d="M915.71,585.43A13.55,13.55,0,1,1,929.25,599,13.57,13.57,0,0,1,915.71,585.43Zm19.64,0a6.1,6.1,0,1,0-6.1,6.1A6.1,6.1,0,0,0,935.35,585.43Z"/><polygon class="cls-2" points="921.77 676.95 890.74 644.12 800.12 644.12 800.12 636.66 893.95 636.66 927.19 671.83 921.77 676.95"/><path class="cls-2" d="M915.71,679.36a13.55,13.55,0,1,1,13.54,13.54A13.57,13.57,0,0,1,915.71,679.36Zm19.64,0a6.1,6.1,0,1,0-6.1,6.09A6.11,6.11,0,0,0,935.35,679.36Z"/><rect class="cls-2" x="773.68" y="441.58" width="35.4" height="26.12"/><rect class="cls-2" x="773.68" y="487.61" width="35.4" height="26.12"/><rect class="cls-2" x="773.68" y="533.64" width="35.4" height="26.12"/><rect class="cls-2" x="773.68" y="579.67" width="35.4" height="26.12"/><rect class="cls-2" x="773.68" y="625.71" width="35.4" height="26.12"/></g><path class="cls-3" d="M386.7,371.67a19.18,19.18,0,0,0-.37-3.73l6.24-3.6-5.85-10.12-6.22,3.59a18.64,18.64,0,0,0-6.56-3.8v-7.17H362.25V354a19,19,0,0,0-3.13,1.36l-.35.2-.35.21a17.89,17.89,0,0,0-2.75,2l-6.2-3.59-5.85,10.12,6.21,3.59a18.53,18.53,0,0,0-.38,3.39c0,.14,0,.27,0,.41s0,.27,0,.4a18.53,18.53,0,0,0,.38,3.39l-6.21,3.59,5.85,10.12,6.2-3.59a18.67,18.67,0,0,0,6.58,3.79v7.18h11.69V389.4a18.71,18.71,0,0,0,6.53-3.79l6.25,3.62,5.85-10.12-6.26-3.62A18.47,18.47,0,0,0,386.7,371.67Zm-10.95,8.24-.15.14c-.21.18-.41.35-.63.52l-.3.23-.53.36-.44.27-.45.24c-.19.1-.39.2-.58.28l-.35.15a7.77,7.77,0,0,1-.76.28l-.2.07a11.26,11.26,0,0,1-13.67-15.07,1.54,1.54,0,0,0,.08-.19c.1-.23.22-.46.33-.68l.23-.42.25-.41c.14-.22.28-.43.43-.63l.12-.16a11.25,11.25,0,0,1,18.67,1.23,11,11,0,0,1,1.21,3.07l.05.2c.05.27.1.53.14.8s0,.25,0,.38,0,.43.05.64,0,.34,0,.51,0,.35,0,.52,0,.43-.05.64,0,.25,0,.38-.09.53-.14.8c0,.06,0,.13-.05.2a11.09,11.09,0,0,1-1.21,3.07A11.32,11.32,0,0,1,375.75,379.91Z"/><path class="cls-3" d="M449.08,317.58a31.39,31.39,0,0,0-.62-6.25l10.46-6-9.8-17-10.43,6a31.11,31.11,0,0,0-11-6.38v-12h-19.6v12a30.67,30.67,0,0,0-5.25,2.29l-.58.33-.59.34a31,31,0,0,0-4.61,3.41l-10.41-6-9.8,17,10.42,6a30.44,30.44,0,0,0-.65,5.69v1.35a30.54,30.54,0,0,0,.65,5.69l-10.42,6,9.8,17,10.41-6a31.18,31.18,0,0,0,11,6.35v12h19.6V347.31a30.82,30.82,0,0,0,5.73-2.58,32.18,32.18,0,0,0,5.22-3.77L449.12,347l9.8-17L448.42,324A31.29,31.29,0,0,0,449.08,317.58Zm-18.36,13.81-.26.24c-.34.3-.69.59-1,.87l-.51.38c-.3.21-.59.41-.9.61l-.73.45-.76.41c-.32.17-.64.32-1,.47l-.58.25c-.42.17-.84.33-1.28.47l-.33.1a18.61,18.61,0,0,1-5.47.82,18.87,18.87,0,0,1-17.44-26.08c0-.11.09-.21.13-.31.17-.39.36-.77.55-1.15l.39-.71.42-.68c.23-.36.46-.71.72-1.06l.2-.27a18.86,18.86,0,0,1,31.3,2.07,18.51,18.51,0,0,1,2,5.15c0,.11.05.22.07.33.1.45.17.9.24,1.34,0,.21.05.42.07.63s.06.72.08,1.09,0,.57,0,.85,0,.58,0,.87,0,.72-.08,1.07-.05.43-.08.64c-.06.44-.13.89-.23,1.34,0,.11-.05.22-.07.34a18.57,18.57,0,0,1-2,5.14A18.78,18.78,0,0,1,430.72,331.39Z"/><ellipse class="cls-4" cx="558.96" cy="768.54" rx="376.31" ry="35.53"/><polygon class="cls-2" points="626.19 756.07 491.74 756.07 514.86 689.41 603.07 689.41 626.19 756.07"/><path class="cls-3" d="M343.53,486.59H774.39a0,0,0,0,1,0,0V700a23.12,23.12,0,0,1-23.12,23.12H366.65A23.12,23.12,0,0,1,343.53,700V486.59A0,0,0,0,1,343.53,486.59Z"/><path class="cls-2" d="M366.65,420.31H751.27a23.12,23.12,0,0,1,23.12,23.12V668.35a0,0,0,0,1,0,0H343.53a0,0,0,0,1,0,0V443.43A23.12,23.12,0,0,1,366.65,420.31Z"/><rect class="cls-5" x="360.86" y="443.66" width="396.96" height="200.89"/><circle class="cls-2" cx="558.96" cy="692.88" r="12.54"/><path class="cls-3" d="M661.22,756.07H456.71a12.43,12.43,0,0,1,12.43-12.43H648.79a12.44,12.44,0,0,1,12.43,12.43Z"/><rect class="cls-2" x="585.16" y="488.97" width="120.94" height="16.6" rx="8.3"/><rect class="cls-2" x="385.79" y="485.94" width="138.38" height="17.96" rx="8.98"/><rect class="cls-2" x="385.79" y="514.58" width="86.75" height="9.83" rx="4.91"/><rect class="cls-6" x="374.1" y="555.16" width="148.21" height="28.05" rx="14.02"/><path class="cls-5" d="M385.68,569.42a6,6,0,0,1,10.38-3.7l-1.61,1.49a3.52,3.52,0,0,0-2.74-1.28,3.49,3.49,0,0,0,0,7,3.5,3.5,0,0,0,2.74-1.29l1.61,1.49a6,6,0,0,1-10.38-3.68Z"/><path class="cls-5" d="M396.67,570.67a4.6,4.6,0,1,1,4.6,4.31A4.3,4.3,0,0,1,396.67,570.67Zm6.73,0a2.14,2.14,0,1,0-2.13,2.32A2.11,2.11,0,0,0,403.4,570.67Z"/><path class="cls-5" d="M416,570.07v4.79H413.6v-4.42c0-1.35-.62-2-1.69-2s-2,.71-2,2.25v4.14h-2.43v-8.37h2.32v1a3.67,3.67,0,0,1,2.77-1.1C414.53,566.37,416,567.52,416,570.07Z"/><path class="cls-5" d="M426.77,570.07v4.79h-2.43v-4.42c0-1.35-.62-2-1.69-2s-2,.71-2,2.25v4.14h-2.42v-8.37h2.31v1a3.7,3.7,0,0,1,2.77-1.1C425.28,566.37,426.77,567.52,426.77,570.07Z"/><path class="cls-5" d="M437.2,571.36h-6.33a2.24,2.24,0,0,0,2.4,1.68,2.87,2.87,0,0,0,2.1-.81l1.29,1.4a4.41,4.41,0,0,1-3.45,1.35c-2.9,0-4.78-1.82-4.78-4.31a4.25,4.25,0,0,1,4.46-4.3,4.15,4.15,0,0,1,4.36,4.34C437.25,570.89,437.22,571.16,437.2,571.36Zm-6.36-1.42H435a2.09,2.09,0,0,0-4.12,0Z"/><path class="cls-5" d="M438.24,570.67c0-2.51,1.95-4.3,4.67-4.3a3.83,3.83,0,0,1,3.74,2.13l-1.88,1a2.09,2.09,0,0,0-1.88-1.15,2.32,2.32,0,0,0,0,4.63,2.05,2.05,0,0,0,1.88-1.15l1.88,1a3.88,3.88,0,0,1-3.74,2.11C440.19,575,438.24,573.19,438.24,570.67Z"/><path class="cls-5" d="M453.57,574.45a3.45,3.45,0,0,1-2,.53c-2,0-3.13-1-3.13-3v-3.43h-1.29v-1.87h1.29v-2h2.43v2H453v1.87H450.9V572a1,1,0,0,0,1,1.1,1.66,1.66,0,0,0,1-.31Z"/><path class="cls-5" d="M476,564l-3.56,10.89h-2.71l-2.39-7.37-2.47,7.37h-2.69L458.56,564h2.61l2.46,7.65L466.2,564h2.33l2.49,7.72,2.53-7.72Z"/><path class="cls-5" d="M484,570.08v4.78H481.7v-1a2.74,2.74,0,0,1-2.55,1.16c-2,0-3.13-1.09-3.13-2.53s1-2.51,3.59-2.51h1.93c0-1-.62-1.64-1.93-1.64a4.05,4.05,0,0,0-2.41.77l-.87-1.69a6.46,6.46,0,0,1,3.61-1C482.49,566.37,484,567.55,484,570.08Zm-2.43,2.13v-.85h-1.66c-1.14,0-1.49.42-1.49,1s.51,1,1.36,1A1.78,1.78,0,0,0,481.54,572.21Z"/><path class="cls-5" d="M486.16,563.32h2.42v11.54h-2.42Z"/><path class="cls-5" d="M490.84,563.32h2.42v11.54h-2.42Z"/><path class="cls-5" d="M503.67,571.36h-6.33a2.23,2.23,0,0,0,2.39,1.68,2.84,2.84,0,0,0,2.1-.81l1.29,1.4a4.4,4.4,0,0,1-3.45,1.35c-2.89,0-4.77-1.82-4.77-4.31a4.25,4.25,0,0,1,4.46-4.3,4.14,4.14,0,0,1,4.35,4.34C503.71,570.89,503.68,571.16,503.67,571.36Zm-6.36-1.42h4.12a2,2,0,0,0-2.06-1.74A2,2,0,0,0,497.31,569.94Z"/><path class="cls-5" d="M510.72,574.45a3.41,3.41,0,0,1-2,.53c-2,0-3.12-1-3.12-3v-3.43h-1.3v-1.87h1.3v-2h2.42v2h2.08v1.87h-2.08V572a1,1,0,0,0,1,1.1,1.64,1.64,0,0,0,1-.31Z"/><path class="cls-5" d="M442.11,587.41l-.15.06c-.49-1.06-2.3-1.08-3-1.05-.57-1-2.22-1-2.72-1V582a1.46,1.46,0,1,0-2.91,0v9.61c0-.91-.52-1.29-1.26-2-1.82-1.6-3.55.48-2.09,2,3.26,3.25,4.32,6.15,4.32,9.23h8.74a13,13,0,0,1,.78-3.38,18.17,18.17,0,0,0,1.17-6.11v-2.14C445,587.05,442.11,587.41,442.11,587.41Z"/><path class="cls-7" d="M444.84,587.59a3.91,3.91,0,0,0-2.65-.68,2.44,2.44,0,0,0-.27-.29,3.88,3.88,0,0,0-2.64-.68,2.44,2.44,0,0,0-.27-.29,3.48,3.48,0,0,0-2.24-.69v-3a1.95,1.95,0,1,0-3.89,0v7.8a3.13,3.13,0,0,0-.45-.5,2,2,0,0,0-2.95-.14,2,2,0,0,0,.19,2.79c2.9,2.89,4.18,5.63,4.18,8.89v.48h9.69l0-.45a12,12,0,0,1,.74-3.23,18.59,18.59,0,0,0,1.2-6.3v-2.13A2.07,2.07,0,0,0,444.84,587.59Zm-.3,3.74a18,18,0,0,1-1.13,5.93,13.4,13.4,0,0,0-.77,3.07h-7.82c-.12-3.32-1.51-6.14-4.46-9.09a1,1,0,0,1-.18-1.43c.29-.31.88-.44,1.61.2a3.53,3.53,0,0,1,1.09,2.35h1V582a1,1,0,1,1,1.94,0v7.66h1v-3.71a2.57,2.57,0,0,1,1.6.45,1.1,1.1,0,0,1,.34.87v2.38h1v-2.38c0-.12,0-.24,0-.35a2.63,2.63,0,0,1,1.62.45,1.11,1.11,0,0,1,.35.87v2.38h1v-2.38a2,2,0,0,0,0-.35,2.63,2.63,0,0,1,1.62.45,1.08,1.08,0,0,1,.35.87Z"/><ellipse class="cls-8" cx="564.18" cy="567.14" rx="228.72" ry="209.97"/><circle class="cls-6" cx="346.18" cy="490.98" r="60.44"/><circle class="cls-6" cx="558.97" cy="354" r="60.44"/><circle class="cls-6" cx="771.76" cy="490.98" r="60.44"/><circle class="cls-6" cx="690.48" cy="741.13" r="60.44"/><circle class="cls-6" cx="427.46" cy="741.13" r="60.44"/><rect class="cls-9" x="536.25" y="312.52" width="22.21" height="68.63" rx="11.11" transform="translate(246.75 -227.21) rotate(30)"/><rect class="cls-10" x="559.46" y="312.52" width="22.21" height="68.63" rx="11.11" transform="matrix(-0.87, 0.5, -0.5, -0.87, 1238.12, 361.92)"/><path class="cls-5" d="M783.18,466.78V453.23l-11.12-2.7v13.56l-11.73-2.85v12.49l-10.76-2.32v41.16l10.76,2.61v13.55l11.12,2.7V517.87l11.73,2.85V508.23L794,510.55V469.39Zm-8.7,42.88-16.22-3.93V482.18l2.07.45,14.15,3.05v24Z"/><path class="cls-5" d="M723.28,771.36c-10.1,0-6.07-8.31-4.13-13.83s2.53-10.88-.85-16.9c-3.16-5.63-8-5.69-13.44-10.08l7.63-7.77c3.17,2.33,6.13,1.78,7.82.09,2.64-2.65,2.57-10,2.46-12-4,.29-9.33,0-12.83,2.76-1.46,1.15-1.57,4.62.67,7.42L703,728.77c-3-3.74-4.3-11.4-12.36-15-6.42-2.86-13.07-.1-20.23,2.44s-8.32-3-8.21-6.07c0-.5-.91-.82-1.06.12-.1.64-.63,3.93,1.06,6.5a4.4,4.4,0,0,0,.88,1l4.89,32.75,1.74-.69-5-31.15c2.2.82,5.3.79,8.65,0a21.84,21.84,0,0,1,15.31,2.18c4.83,2.64,6,10.1,9.6,13.68,6.54,6.54,10.89,2.83,15.71,12.72,3,6.18.4,11.24.3,18.8a9.27,9.27,0,0,0,.27,2.56L682,763.7s1.81-3.43.8-9.14a33.77,33.77,0,0,1-5.95,4l20-20.13a1.29,1.29,0,1,0-1.82-1.82l-14.27,14.31a40.64,40.64,0,0,0-6.57-.42c1.51,1.45,1.54,1.82,1.54,1.82s-3.58-1.64-6.71-.47a5.6,5.6,0,0,0-3.63,4.32c1.64.42,2.43.45,2.66,1.37-2.22.15-4.14-.06-5.45,4.32-.35,1.17,3.51,1.4,5.47.78s2.06-.5,2.36.07.1.8,3.31,1.32l41.73,6.62c1.89,2.44,5.48,1.88,6.92,2C724.42,772.67,724,771.36,723.28,771.36Z"/><path class="cls-5" d="M679.68,766.47l-7.94-1.34a.46.46,0,0,0-.54.44c-.05,1.25-.18,4.35-.18,5.14,0,1,3.31-.88,4-1.29s.61-1.36.69-1.95a.21.21,0,0,1,.39-.08l.42,1a.3.3,0,0,0,.44.13l2.8-1.74A.15.15,0,0,0,679.68,766.47Z"/><path class="cls-5" d="M460.2,761.78H448.36a3.57,3.57,0,0,1-3.18-1.93L437,744.17a5.2,5.2,0,0,1,.11-5l5.24-9.08a4,4,0,0,0-3.47-6H416a4,4,0,0,0-3.47,6l5.21,9a5.22,5.22,0,0,1,.11,5l-8.13,15.73a3.6,3.6,0,0,1-3.19,1.94H394.71a3,3,0,0,1-2.62-4.31l25.87-50a4.66,4.66,0,0,1,4.14-2.51h10.58a4.65,4.65,0,0,1,4.14,2.51l26,50A3,3,0,0,1,460.2,761.78Z"/><path class="cls-5" d="M434.27,742.32a6.8,6.8,0,0,0-6.81,6.8,6.8,6.8,0,0,0-6.81-6.8,6.81,6.81,0,0,0,6.81-6.81A6.81,6.81,0,0,0,434.27,742.32Z"/><path class="cls-10" d="M386.42,491.32a26.17,26.17,0,0,1-26.17,26.17q-.88,0-1.74-.06h1.74V465.16A26.17,26.17,0,0,1,386.42,491.32Z"/><path class="cls-5" d="M360.25,465.16v52.27h-1.74a26.16,26.16,0,0,1,1.74-52.27Z"/><path class="cls-10" d="M358.51,517.43h-47.8V465.16h49.54a26.16,26.16,0,0,0-1.74,52.27Z"/><rect class="cls-2" x="641.99" y="346.84" width="71.85" height="123.32" rx="7.98"/><rect class="cls-5" x="643.93" y="355.43" width="67.97" height="105.65"/><rect class="cls-6" x="652.05" y="382.63" width="51.74" height="51.74" rx="7.98"/><path class="cls-5" d="M677.92,428.3a19.81,19.81,0,1,1,19.8-19.8A19.83,19.83,0,0,1,677.92,428.3Zm0-35.95a16.15,16.15,0,1,0,16.14,16.15A16.17,16.17,0,0,0,677.92,392.35Z"/><polygon class="cls-5" points="676.48 416.03 669.56 409.93 672.46 406.64 676.08 409.82 682.97 401.94 686.27 404.83 676.48 416.03"/><path class="cls-2" d="M686.92,359.61h-18a5,5,0,0,1-5-5H692A5,5,0,0,1,686.92,359.61Z"/><path class="cls-3" d="M684.41,355.43h-13a.85.85,0,0,1-.84-.84h0a.85.85,0,0,1,.84-.84h13a.84.84,0,0,1,.84.84h0A.84.84,0,0,1,684.41,355.43Z"/><rect class="cls-2" x="606.76" y="580.11" width="10.24" height="39.24"/><rect class="cls-2" x="621.82" y="569.36" width="10.24" height="50"/><rect class="cls-2" x="636.87" y="569.36" width="10.24" height="50"/><rect class="cls-2" x="651.92" y="556.54" width="10.24" height="62.82"/><rect class="cls-2" x="666.97" y="538.18" width="10.24" height="81.17"/><polygon class="cls-2" points="677.22 520.27 667.52 522.16 670.07 525.15 642.12 551.75 624.31 551.75 606.99 564.42 609.14 567.85 625.49 555.88 643.56 555.88 672.66 528.2 674.66 530.54 677.22 520.27"/></svg>