<svg xmlns="http://www.w3.org/2000/svg" xmlns:xlink="http://www.w3.org/1999/xlink" viewBox="177.52 242.85 724.95 586.47"><defs><style>.cls-1{isolation:isolate;}.cls-2{fill:#bdd0fb;}.cls-17,.cls-18,.cls-19,.cls-20,.cls-3{fill:#fff;}.cls-4{fill:#cedcfc;}.cls-5{fill:#f48c68;}.cls-6{fill:#007cff;}.cls-7{fill:#1a2e35;}.cls-8,.cls-9{fill:none;stroke-miterlimit:10;stroke-width:1.33px;}.cls-8{stroke:#1a2e35;stroke-linecap:round;}.cls-9{stroke:#007cff;}.cls-10{fill:#5865f2;}.cls-11,.cls-12,.cls-13,.cls-14,.cls-16{mix-blend-mode:hard-light;}.cls-11,.cls-12,.cls-13,.cls-14,.cls-16,.cls-17{opacity:0.5;}.cls-11{fill:url(#Degradado_sin_nombre_2);}.cls-12{fill:url(#Degradado_sin_nombre_2-2);}.cls-13{fill:url(#Degradado_sin_nombre_2-3);}.cls-14{fill:url(#Degradado_sin_nombre_2-4);}.cls-15{fill:#b3b3b3;}.cls-16{fill:url(#Degradado_sin_nombre_2-5);}.cls-18{opacity:0.6;}.cls-19{opacity:0.45;}.cls-20{opacity:0.8;}</style><linearGradient id="Degradado_sin_nombre_2" x1="867.71" y1="-338.27" x2="867.71" y2="-496.66" gradientTransform="matrix(1, 0, 0, 1, -350.73, 922.94)" gradientUnits="userSpaceOnUse"><stop offset="0" stop-color="#fde7d4" stop-opacity="0"/><stop offset="1" stop-color="#fde7d4" stop-opacity="0.75"/></linearGradient><linearGradient id="Degradado_sin_nombre_2-2" x1="1143.15" y1="-130.67" x2="1143.15" y2="-289.05" gradientTransform="matrix(1, 0, 0, 1, -684.6, 786)" xlink:href="#Degradado_sin_nombre_2"/><linearGradient id="Degradado_sin_nombre_2-3" x1="950.14" y1="1614.34" x2="950.14" y2="1455.95" gradientTransform="translate(-331.26 -1028.19)" xlink:href="#Degradado_sin_nombre_2"/><linearGradient id="Degradado_sin_nombre_2-4" x1="463.87" y1="2182.26" x2="463.87" y2="2023.88" gradientTransform="matrix(1, 0, 0, 0.77, 200.5, -1026.83)" xlink:href="#Degradado_sin_nombre_2"/><linearGradient id="Degradado_sin_nombre_2-5" x1="2202.65" y1="1912.53" x2="2202.65" y2="1754.15" gradientTransform="translate(-1633.93 -1402.05)" xlink:href="#Degradado_sin_nombre_2"/></defs><g class="cls-1"><g id="Layer_1" data-name="Layer 1"><circle class="cls-2" cx="784.53" cy="403.59" r="39.23"/><polygon class="cls-2" points="784.53 441.3 755.4 451.49 759.46 429.3 784.53 441.3"/><path class="cls-3" d="M799.38,385.31c-6.85-2-14.85,5.27-14.85,5.27s-8-7.27-14.84-5.27-11,10.7-7.15,19.79c4.52,10.74,15.36,18.11,22,22.1,6.64-4,17.48-11.36,22-22.1C810.37,396,806.22,387.31,799.38,385.31Z"/><path class="cls-2" d="M403.61,351.17a17.7,17.7,0,0,0-7.78,1.82,32,32,0,0,0-62-9.38,22.94,22.94,0,1,0-11.1,43h80.92a17.74,17.74,0,0,0,0-35.47Z"/><polygon class="cls-3" points="373.63 354.91 361.37 339.69 349.11 354.91 353.28 354.91 353.28 376.12 369.46 376.12 369.46 354.91 373.63 354.91"/><circle class="cls-2" cx="667.41" cy="293.82" r="50.97"/><rect class="cls-3" x="640.85" y="301.59" width="7.72" height="29.58"/><rect class="cls-3" x="652.2" y="293.48" width="7.72" height="37.69"/><rect class="cls-3" x="663.55" y="293.48" width="7.72" height="37.69"/><rect class="cls-3" x="674.89" y="283.81" width="7.72" height="47.36"/><rect class="cls-3" x="686.24" y="269.98" width="7.72" height="61.19"/><polygon class="cls-3" points="693.96 256.47 686.65 257.9 688.58 260.16 667.5 280.2 654.08 280.2 641.02 289.76 642.64 292.34 654.97 283.32 668.59 283.32 690.53 262.45 692.03 264.22 693.96 256.47"/><rect class="cls-4" x="382.19" y="484.85" width="39.93" height="29.46"/><rect class="cls-4" x="382.19" y="536.77" width="39.93" height="29.46"/><rect class="cls-4" x="382.19" y="588.7" width="39.93" height="29.46"/><rect class="cls-4" x="382.19" y="640.62" width="39.93" height="29.46"/><rect class="cls-4" x="382.19" y="692.55" width="39.93" height="29.46"/><polygon class="cls-4" points="225.43 710.23 219.64 704.13 275.5 651.15 394.86 651.15 394.86 659.56 278.85 659.56 225.43 710.23"/><path class="cls-4" d="M215.77,731.15A17.21,17.21,0,1,1,233,714,17.23,17.23,0,0,1,215.77,731.15Zm0-26a8.8,8.8,0,1,0,8.8,8.8A8.81,8.81,0,0,0,215.77,705.15Z"/><rect class="cls-4" x="231.99" y="598.83" width="162.87" height="8.41"/><path class="cls-4" d="M222.13,620.24a17.21,17.21,0,1,1,17.2-17.2A17.23,17.23,0,0,1,222.13,620.24Zm0-26a8.8,8.8,0,1,0,8.8,8.8A8.81,8.81,0,0,0,222.13,594.24Z"/><polygon class="cls-4" points="296.06 570.44 204.67 570.44 204.67 562.03 292.97 562.03 310.31 547.3 394.86 547.3 394.86 555.71 313.39 555.71 296.06 570.44"/><path class="cls-4" d="M194.74,585a17.21,17.21,0,1,1,17.2-17.21A17.23,17.23,0,0,1,194.74,585Zm0-26a8.8,8.8,0,1,0,8.8,8.79A8.8,8.8,0,0,0,194.74,559Z"/><rect class="cls-4" x="286.11" y="492.9" width="108.75" height="8.41"/><path class="cls-4" d="M275.72,514.31a17.21,17.21,0,1,1,17.21-17.2A17.22,17.22,0,0,1,275.72,514.31Zm0-26a8.81,8.81,0,1,0,8.81,8.81A8.82,8.82,0,0,0,275.72,488.3Z"/><polygon class="cls-4" points="394.86 711.48 304.36 711.48 290.52 697.93 296.4 691.92 307.79 703.07 394.86 703.07 394.86 711.48"/><path class="cls-4" d="M288.94,704.6a15.28,15.28,0,1,1,15.28-15.27A15.29,15.29,0,0,1,288.94,704.6Zm0-22.15a6.88,6.88,0,1,0,6.88,6.88A6.88,6.88,0,0,0,288.94,682.45Z"/><polygon class="cls-4" points="800.26 503.79 736.37 503.79 736.37 495.38 795.77 495.38 813.28 469.23 877.88 469.23 877.88 477.64 817.77 477.64 800.26 503.79"/><path class="cls-4" d="M871.91,473.43a15.28,15.28,0,1,1,15.28,15.29A15.3,15.3,0,0,1,871.91,473.43Zm22.15,0a6.87,6.87,0,1,0-6.87,6.88A6.88,6.88,0,0,0,894.06,473.43Z"/><polygon class="cls-4" points="832.29 555.71 736.37 555.71 736.37 547.3 828.55 547.3 855.66 517.16 861.91 522.78 832.29 555.71"/><path class="cls-4" d="M848,514.06a15.28,15.28,0,1,1,15.28,15.28A15.3,15.3,0,0,1,848,514.06Zm22.16,0a6.88,6.88,0,1,0-6.88,6.87A6.88,6.88,0,0,0,870.13,514.06Z"/><polygon class="cls-4" points="877.88 651.32 827.63 651.32 782.45 606.29 740.05 606.29 740.05 597.88 785.92 597.88 831.1 642.91 877.88 642.91 877.88 651.32"/><path class="cls-4" d="M870.44,647.12a15.28,15.28,0,1,1,15.27,15.28A15.3,15.3,0,0,1,870.44,647.12Zm22.15,0a6.88,6.88,0,1,0-6.88,6.87A6.89,6.89,0,0,0,892.59,647.12Z"/><polygon class="cls-4" points="877.28 750.35 842.27 713.32 740.05 713.32 740.05 704.91 845.89 704.91 883.38 744.58 877.28 750.35"/><path class="cls-4" d="M870.44,753.07a15.28,15.28,0,1,1,15.27,15.28A15.29,15.29,0,0,1,870.44,753.07Zm22.15,0a6.88,6.88,0,1,0-6.88,6.87A6.89,6.89,0,0,0,892.59,753.07Z"/><rect class="cls-4" x="710.22" y="484.85" width="39.93" height="29.46"/><rect class="cls-4" x="710.22" y="536.77" width="39.93" height="29.46"/><rect class="cls-4" x="710.22" y="588.7" width="39.93" height="29.46"/><rect class="cls-4" x="710.22" y="640.62" width="39.93" height="29.46"/><rect class="cls-4" x="710.22" y="692.55" width="39.93" height="29.46"/><path class="cls-4" d="M792.33,603.57A225.74,225.74,0,0,1,677.92,800q-3.49,2-7.07,3.86A224.91,224.91,0,0,1,627.54,821c-1.22.33-2.43.67-3.65,1-6.35,1.67-12.83,3.06-19.4,4.17l-.85.15a228.09,228.09,0,0,1-37.1,3q-9.6,0-19-.79h-.19a222.78,222.78,0,0,1-28.75-4.31l-3-.66a222.3,222.3,0,0,1-41.44-13.91c-1.91-.85-3.78-1.72-5.66-2.65A225.77,225.77,0,0,1,340.73,603.57c0-124.72,101.09-225.81,225.81-225.81S792.33,478.85,792.33,603.57Z"/><path class="cls-5" d="M697.38,771.09c8.65-4.67,13.94-13.86,17.15-23.15,6.76-19.56,5.12-65.51-2.86-84.61L665.16,688.2Z"/><path class="cls-6" d="M650.1,566.93a136.9,136.9,0,0,1,15.23,10.91c26,21.53,43.91,51.81,53.51,85.83a322.88,322.88,0,0,1-48.56,28.7Z"/><path class="cls-7" d="M627.89,555.94l-.14,107s0,0,0,0l-.1,67.79h0L627.54,821c-1.22.33-2.43.67-3.65,1-6.35,1.67-12.83,3.06-19.4,4.17l-.85.15a228.09,228.09,0,0,1-37.1,3q-9.6,0-19-.79h-.19a222.78,222.78,0,0,1-28.75-4.31l-3-.66.14-83.2v0l.14-73.78h0l.17-105.26h0a2.35,2.35,0,0,1,.24-.11l.24-.12.27-.14.28-.11A155.7,155.7,0,0,1,537,553.1c2.94-.94,5.93-1.86,9-2.73,0,0,6.62,10.17,28.23,9.4s29.17-10.43,29.17-10.43c1.42.23,2.85.49,4.26.78h0A123.24,123.24,0,0,1,627.89,555.94Z"/><path class="cls-5" d="M426.39,752.28a56.31,56.31,0,0,1-4.28-11.8c-3.18-13.19,2.14-56.13,4.28-69.53l58.34,17.37Z"/><path class="cls-6" d="M480.25,584q-3,2.35-5.85,4.81a192.13,192.13,0,0,0-60.17,92.58,373.12,373.12,0,0,0,61.51,8.69Z"/><path class="cls-6" d="M547.55,828.57h-.19a222.78,222.78,0,0,1-28.75-4.31l-3-.66a222.3,222.3,0,0,1-41.44-13.91c-1.91-.85-3.78-1.72-5.66-2.65q.15-15.76.45-31.52.67-36.12,2.11-72.24h0c0-.75,0-1.53.09-2.29h0c.15-3.71.3-7.44.46-11.16h0c.09-1.78.17-3.52.24-5.28v0q1-21.75,2.26-43.48l6.1-57a199.64,199.64,0,0,1,35.84-22.64l.24-.12.24-.12.27-.14c.09-.05.18-.08.27-.12h0c.44.24,9.57,5.4,16.66,19.52,4,8,7.37,18.75,8.17,33.12.44,7.82.88,15.42,1.29,22.86h0c.65,11.13,1.28,21.87,1.87,32.34v0c.19,3.45.37,6.88.55,10.27v0C548.39,729.61,549.94,774.7,547.55,828.57Z"/><path class="cls-6" d="M677.92,800q-3.49,2-7.07,3.86A224.91,224.91,0,0,1,627.54,821c-1.22.33-2.43.67-3.65,1-6.35,1.67-12.83,3.06-19.4,4.17-1.34-27.5-1.74-55-.55-82.53.64-14.72.87-28.9.95-42.51h0c.17-20.35,0-39.35.54-56.78h0c.06-2.47.16-4.9.25-7.3h0c.09-2,.19-4,.28-5.9a250.12,250.12,0,0,1,4-34.84,104.12,104.12,0,0,1,17.91-40.35,133.63,133.63,0,0,1,22.2,11l20.4,74.37q2.13,21,3.69,42.08c.17,2.28.34,4.57.47,6.85.34,4.68.63,9.36.92,14v0q.36,6.18.66,12.37,1.41,28.53,1.69,57.11v0Q678.06,786.93,677.92,800Z"/><path class="cls-5" d="M613.56,644.34c-1.68-2.65-3.27-5.37-4.74-8.14-4.44-8.33-9.93-16.58-17.48-21.46l-3.11,29.6Z"/><path class="cls-7" d="M561,451.77A17.66,17.66,0,0,1,559,436a19.38,19.38,0,0,1,16.43-12.88c7.35-.52,14.88,4.05,17.51,10.94s-.12,15.51-6.41,19.35Z"/><path class="cls-7" d="M601.19,500.18a38.55,38.55,0,0,0,1.36-30.56A35.94,35.94,0,0,0,580.4,448.7a33.68,33.68,0,0,0-29.91,4.93,23,23,0,0,0-17.43,6.54c-4.24,4.4-6.37,10.53-6.79,16.62s.75,12.2,2.61,19.62C553.51,501.21,578.94,506,601.19,500.18Z"/><path class="cls-5" d="M541,494.66a8.94,8.94,0,0,0-16.07,6.5,10.9,10.9,0,0,0,6.45,8.8c3.68,1.56,8.56.73,11-2.24Z"/><path class="cls-5" d="M591.63,495.32a8.94,8.94,0,0,1,15.89,6.92,10.9,10.9,0,0,1-6.68,8.63c-3.72,1.46-8.57.5-10.9-2.52Z"/><path class="cls-5" d="M585.34,538.47c-.11-1.21-.21-2.43-.31-3.65a10.68,10.68,0,0,1,3.12-8.35,35,35,0,0,0,8.28-15.12c2.05-7.43,2.23-15.22,2.29-22.92a14.69,14.69,0,0,0-3-8.43,16.38,16.38,0,0,0-8.82-6.17c-7.29-2.13-12.54,1.91-18.06,4.92-3.65,2-7.86,3.61-11.89,2.58s-7.06-4.34-11.07-4.64c-3.64-.27-7.06,2.16-9,5.25s-2.74,6.74-3.49,10.32a36.49,36.49,0,0,0,5.49,25.42,36.87,36.87,0,0,0,11.33,11.05,10.24,10.24,0,0,1,4.68,8.72v2.8a10.15,10.15,0,0,1-7.91,9.86,85.7,85.7,0,0,0-10.06,3,44,44,0,0,0,36.69,18c14.12-.34,26.74-9,34.05-21.09a93.48,93.48,0,0,0-13.43-2.36A10.08,10.08,0,0,1,585.34,538.47Z"/><path class="cls-8" d="M545.3,497.94a5.62,5.62,0,0,1,9.05-.07"/><path class="cls-8" d="M587.56,497.37a5.62,5.62,0,0,0-9-.3"/><path class="cls-9" d="M561.29,497.12a6.25,6.25,0,0,1,8.78.47"/><path class="cls-9" d="M556.54,488.09c-10.2-7.82-25,6.22-16,16.71C551.24,517.15,570.18,498.56,556.54,488.09Z"/><path class="cls-9" d="M575,487.29c10.39-7.55,24.85,6.87,15.52,17.12C579.48,516.47,561,497.4,575,487.29Z"/><path class="cls-5" d="M426.39,752.28c4.22,8.49,10.68,15.79,19.14,19.91,13.19,6.43,29.45,4.17,42.17-3.16s22.3-19.1,29.94-31.63c16.72-27.43,25.35-59.33,43.26-86,0,0-18.21-17.5-21.43-16.71-8.6,21.2-27.42,36.32-46,49.72s-38.2,26.71-49.94,46.35Z"/><path class="cls-10" d="M592.26,580.61q.59,38.67-1.86,77.29a12.47,12.47,0,0,1-12.06,11.68,271.61,271.61,0,0,1-32.37-1,12.47,12.47,0,0,1-11.34-12.21c-.4-25.44.78-50.91,2.68-76.27a12.45,12.45,0,0,1,12-11.52c9.72-.34,19.72-.4,30.68-.26A12.48,12.48,0,0,1,592.26,580.61Z"/><path class="cls-3" d="M571.88,610.86A10.74,10.74,0,1,0,574,623.78,10.83,10.83,0,0,0,571.88,610.86Z"/><path class="cls-5" d="M697.38,771.09c-10.45,5.64-23.74,3.37-33.94-2.72s-18-15.44-25.5-24.61c-18.24-22.17-33.91-46.7-54.3-66.23-5.68-5.43-12.61-9.38-18.91-14.08a10.33,10.33,0,0,1-3.19-3.19,3.55,3.55,0,0,1,.42-4.2c1.45-1.29,3.71-.6,5.46.23a74.43,74.43,0,0,1,11.88,7.19c-6.5-5.34-13-10.71-18.5-17.11a10.45,10.45,0,0,1-2.16-3.4,3.5,3.5,0,0,1,3.89-4.9,9.86,9.86,0,0,1,3.39,1.18c7.44,3.77,13.83,9.29,20.34,14.54-6.48-6-13-12-19.19-18.3a13.6,13.6,0,0,1-3.42-4.68c-.66-1.84-.37-4.16,1.18-5.34a4.68,4.68,0,0,1,4-.58,13.24,13.24,0,0,1,3.71,1.88,156.75,156.75,0,0,1,21.54,16.83L575,621.67c-1.61-1.84-3.32-4.23-2.44-6.51.72-1.84,3-2.7,5-2.42a12,12,0,0,1,5.26,2.64c7.27,5.44,13.53,12.09,19.75,18.7l11.07,10.26A155.47,155.47,0,0,0,641.87,677c9.48,8.38,20.4,15,29.79,23.52s17.43,19.49,18.56,32.09Z"/><path class="cls-8" d="M558.18,516.72c5.25,3.27,13.85,1.34,16.7-2.86"/><rect class="cls-11" x="492.23" y="426.31" width="49.42" height="158.38" transform="translate(-197.2 392.52) rotate(-35.37)"/><rect class="cls-12" x="433.85" y="496.96" width="49.42" height="158.38" transform="translate(-276.29 623.29) rotate(-55.15)"/><rect class="cls-13" x="594.13" y="427.77" width="49.42" height="158.38" transform="matrix(0.78, 0.63, -0.63, 0.78, 459.35, -276.96)"/><rect class="cls-14" x="639.71" y="526.51" width="49.42" height="121.56" transform="translate(681.56 -299.32) rotate(49.63)"/><circle class="cls-6" cx="465.74" cy="440.97" r="34.05"/><path class="cls-3" d="M459.11,422.13a19.85,19.85,0,0,1,12.54-.27,20.14,20.14,0,0,1,12.09,10.64,12.35,12.35,0,0,1,1.32,4.51,45.84,45.84,0,0,0-9.5-3.86c-5.22-1.89-10.69-3.19-15.64-5.78-1.15-.69-2.62-1.39-2.93-2.83-.13-1.24,1.19-1.93,2.12-2.41"/><path class="cls-3" d="M447.07,434.19a19.51,19.51,0,0,1,5.62-8.2,25.29,25.29,0,0,0,6.73,14.48A24.17,24.17,0,0,0,477,448a35.27,35.27,0,0,0,7.71-1c-2.51,9-12.42,15.05-21.6,13.6a19.94,19.94,0,0,1-16-26.37Z"/><path class="cls-15" d="M475.36,433a45.76,45.76,0,0,1,9.49,3.86l.2.1a20.29,20.29,0,0,1,.11,6.27,19.19,19.19,0,0,1-4-2.73c-2.44-2-4.93-4.36-5.83-7.5"/><circle class="cls-6" cx="667.33" cy="440.97" r="34.05"/><polygon class="cls-3" points="678.35 459.89 674.38 459.89 669.62 455.53 669.62 453.3 674.54 448.6 674.54 441.16 680.97 436.97 688.3 442.5 678.35 459.89"/><polygon class="cls-3" points="661.91 448.15 662.63 441.16 660.23 434.9 674.43 434.9 672.08 441.16 672.75 448.15 667.27 448.15 661.91 448.15"/><polygon class="cls-3" points="665.15 455.53 660.4 459.95 656.37 459.95 646.36 442.5 653.74 437.02 660.23 441.16 660.23 448.6 665.15 453.3 665.15 455.53"/><polygon class="cls-3" points="656.31 421.98 678.29 421.98 680.92 433.17 653.74 433.17 656.31 421.98"/><rect class="cls-16" x="543.95" y="352.12" width="49.42" height="158.38"/><circle class="cls-6" cx="568.66" cy="375.39" r="33.96"/><circle class="cls-17" cx="568.66" cy="375.39" r="19.71"/><path class="cls-17" d="M568.73,345.76c-3.67,0-6.64,13.29-6.64,29.7s3,29.7,6.64,29.7,6.64-13.3,6.64-29.7S572.4,345.76,568.73,345.76Zm.46,57.72a.53.53,0,0,1-.84.14,15.67,15.67,0,0,1-2.53-5.59c-3-9.5-2.25-29.91-2.25-29.91,1.38-16.2,3.91-20,4.77-20.88a.52.52,0,0,1,.67-.05c1.25.88,2.29,4.58,2.29,4.58A87.22,87.22,0,0,1,574.11,374a115.11,115.11,0,0,1-1.55,19.85C571.16,401.8,569.19,403.48,569.19,403.48Z"/><path class="cls-17" d="M594.49,360.68c-1.82-3.18-14.84.86-29.07,9S541.14,387.06,543,390.24s14.83-.86,29.07-9,24.28-17.36,22.45-20.54ZM544.65,389.8c-.7-.09-.54-.66-.54-.66a15.84,15.84,0,0,1,3.58-5c6.78-7.29,24.83-16.84,24.83-16.84,14.74-6.86,19.32-6.57,20.49-6.25a.54.54,0,0,1,.38.56c-.14,1.52-2.83,4.27-2.83,4.27a87.37,87.37,0,0,1-17.88,13.5,115.24,115.24,0,0,1-18,8.53c-7.61,2.74-10.05,1.87-10.05,1.87Z"/><path class="cls-17" d="M594.43,390.34c1.84-3.17-8.18-12.41-22.36-20.63s-27.2-12.32-29-9.14,8.18,12.41,22.37,20.64S592.59,393.52,594.43,390.34ZM544.25,361.8c-.27-.65.3-.8.3-.8a15.8,15.8,0,0,1,6.11.61c9.7,2.21,27,13.05,27,13.05C591,384,593,388.09,593.34,389.26a.54.54,0,0,1-.29.61c-1.39.63-5.11-.32-5.11-.32a87.08,87.08,0,0,1-20.64-8.71,114.37,114.37,0,0,1-16.39-11.28c-6.19-5.21-6.66-7.75-6.66-7.75Z"/><circle class="cls-3" cx="568.66" cy="375.39" r="3.49"/><ellipse class="cls-3" cx="582.99" cy="361.97" rx="2.03" ry="2.1"/><ellipse class="cls-3" cx="549.72" cy="369.1" rx="2.03" ry="2.1"/><ellipse class="cls-3" cx="564.54" cy="394.82" rx="2.03" ry="2.1"/><circle class="cls-6" cx="409.36" cy="540.08" r="34.05"/><path class="cls-18" d="M409.36,533.14,393,540.58l16.35,9.66,16.35-9.66Z"/><path class="cls-19" d="M393,543.68l16.35,23V553.34Z"/><path class="cls-20" d="M409.36,553.34v13.37l16.36-23Z"/><path class="cls-19" d="M393,540.58l16.35,9.66V513.45Z"/><path class="cls-20" d="M409.36,513.45v36.79l16.35-9.66Z"/><circle class="cls-6" cx="723.7" cy="540.08" r="34.05"/><path class="cls-3" d="M710.43,548.88a1.37,1.37,0,0,1,1-.41h34.32a.7.7,0,0,1,.5,1.19l-6.78,6.78a1.43,1.43,0,0,1-1,.41H704.14a.7.7,0,0,1-.49-1.2Z"/><path class="cls-3" d="M710.43,523.56a1.41,1.41,0,0,1,1-.41h34.32a.7.7,0,0,1,.5,1.2l-6.78,6.77a1.39,1.39,0,0,1-1,.41H704.14a.69.69,0,0,1-.49-1.19Z"/><path class="cls-3" d="M739.46,536.14a1.39,1.39,0,0,0-1-.41H704.14a.69.69,0,0,0-.49,1.19l6.78,6.78a1.41,1.41,0,0,0,1,.41h34.32a.7.7,0,0,0,.5-1.2Z"/></g></g></svg>