<svg xmlns="http://www.w3.org/2000/svg" id="Layer_1" data-name="Layer 1" viewBox="133.48 288.87 813.09 502.24"><defs><style>.cls-1{opacity:0.66;}.cls-2,.cls-4{fill:#bdd0fb;}.cls-3{fill:#cedcfc;}.cls-4{opacity:0.6;}.cls-5{fill:#fff;}.cls-6{fill:#1d99ee;}.cls-7{fill:#c69c6d;}.cls-8{fill:#5865f2;}.cls-9{fill:#29a9eb;}.cls-10{fill:none;stroke:#bdd0fb;stroke-linecap:round;stroke-miterlimit:10;stroke-width:2.87px;}.cls-11{fill:#f48c68;}.cls-12{fill:#007cff;}.cls-13{fill:#16262b;}.cls-14{fill:#1a2e35;}.cls-15{fill:#0074dd;}</style></defs><g class="cls-1"><rect class="cls-2" x="307.59" y="445.93" width="35.4" height="26.12"/><rect class="cls-2" x="307.59" y="491.96" width="35.4" height="26.12"/><rect class="cls-2" x="307.59" y="537.99" width="35.4" height="26.12"/><rect class="cls-2" x="307.59" y="584.02" width="35.4" height="26.12"/><rect class="cls-2" x="307.59" y="630.05" width="35.4" height="26.12"/><polygon class="cls-2" points="175.92 638.43 170.78 633.03 213.01 593.36 318.82 593.36 318.82 600.81 215.98 600.81 175.92 638.43"/><path class="cls-2" d="M167.36,657a15.25,15.25,0,1,1,15.25-15.25A15.27,15.27,0,0,1,167.36,657Zm0-23.05a7.8,7.8,0,1,0,7.8,7.8A7.81,7.81,0,0,0,167.36,633.93Z"/><rect class="cls-2" x="181.73" y="546.98" width="137.09" height="7.45"/><path class="cls-2" d="M173,566a15.26,15.26,0,1,1,15.25-15.26A15.27,15.27,0,0,1,173,566Zm0-23.06a7.8,7.8,0,1,0,7.8,7.8A7.81,7.81,0,0,0,173,542.9Z"/><polygon class="cls-2" points="231.23 521.8 157.52 521.8 157.52 514.35 228.5 514.35 243.87 501.29 318.82 501.29 318.82 508.75 246.6 508.75 231.23 521.8"/><path class="cls-2" d="M148.71,534.72A15.26,15.26,0,1,1,164,519.46,15.27,15.27,0,0,1,148.71,534.72Zm0-23.06a7.8,7.8,0,1,0,7.8,7.8A7.81,7.81,0,0,0,148.71,511.66Z"/><rect class="cls-2" x="222.41" y="453.07" width="96.41" height="7.45"/><path class="cls-2" d="M213.21,472.05a15.26,15.26,0,1,1,15.25-15.25A15.27,15.27,0,0,1,213.21,472.05Zm0-23.06a7.8,7.8,0,1,0,7.8,7.81A7.81,7.81,0,0,0,213.21,449Z"/><polygon class="cls-2" points="318.82 646.84 238.59 646.84 226.32 634.83 231.54 629.5 241.63 639.39 318.82 639.39 318.82 646.84"/><path class="cls-2" d="M224.93,640.74a13.55,13.55,0,1,1,13.54-13.54A13.56,13.56,0,0,1,224.93,640.74Zm0-19.64a6.1,6.1,0,1,0,6.09,6.1A6.11,6.11,0,0,0,224.93,621.1Z"/><polygon class="cls-2" points="851.07 462.72 794.43 462.72 794.43 455.26 847.09 455.26 862.61 432.08 919.87 432.08 919.87 439.54 866.59 439.54 851.07 462.72"/><path class="cls-2" d="M914.59,435.81a13.55,13.55,0,1,1,13.54,13.55A13.56,13.56,0,0,1,914.59,435.81Zm19.63,0a6.09,6.09,0,1,0-6.09,6.09A6.09,6.09,0,0,0,934.22,435.81Z"/><polygon class="cls-2" points="879.46 508.75 794.43 508.75 794.43 501.29 876.14 501.29 900.18 474.57 905.72 479.56 879.46 508.75"/><path class="cls-2" d="M893.37,471.83a13.55,13.55,0,1,1,13.54,13.54A13.55,13.55,0,0,1,893.37,471.83Zm19.63,0a6.09,6.09,0,1,0-6.09,6.09A6.1,6.1,0,0,0,913,471.83Z"/><polygon class="cls-2" points="919.87 593.5 875.33 593.5 835.27 553.59 797.69 553.59 797.69 546.14 838.35 546.14 878.41 586.05 919.87 586.05 919.87 593.5"/><path class="cls-2" d="M913.28,589.78a13.55,13.55,0,1,1,13.54,13.55A13.56,13.56,0,0,1,913.28,589.78Zm19.63,0a6.09,6.09,0,1,0-6.09,6.1A6.09,6.09,0,0,0,932.91,589.78Z"/><polygon class="cls-2" points="919.34 681.3 888.3 648.47 797.69 648.47 797.69 641.01 891.52 641.01 924.75 676.18 919.34 681.3"/><path class="cls-2" d="M913.28,683.71a13.55,13.55,0,1,1,13.54,13.54A13.56,13.56,0,0,1,913.28,683.71Zm19.63,0a6.09,6.09,0,1,0-6.09,6.09A6.1,6.1,0,0,0,932.91,683.71Z"/><rect class="cls-2" x="771.24" y="445.93" width="35.4" height="26.12"/><rect class="cls-2" x="771.24" y="491.96" width="35.4" height="26.12"/><rect class="cls-2" x="771.24" y="537.99" width="35.4" height="26.12"/><rect class="cls-2" x="771.24" y="584.02" width="35.4" height="26.12"/><rect class="cls-2" x="771.24" y="630.05" width="35.4" height="26.12"/></g><path class="cls-3" d="M806.49,379.55a16.62,16.62,0,0,0-.35-3.4l5.7-3.29-5.33-9.24-5.68,3.28a17.16,17.16,0,0,0-6-3.48v-6.54H784.16v6.54a17.33,17.33,0,0,0-2.86,1.25l-.32.18a3.37,3.37,0,0,1-.32.19,16.47,16.47,0,0,0-2.5,1.85l-5.67-3.27-5.34,9.24,5.67,3.27a17.22,17.22,0,0,0-.35,3.1V380a17.22,17.22,0,0,0,.35,3.1l-5.67,3.27,5.34,9.24,5.67-3.27a17,17,0,0,0,6,3.45v6.56h10.67v-6.58a16.67,16.67,0,0,0,3.12-1.4,16.91,16.91,0,0,0,2.84-2.06l5.72,3.3,5.33-9.24-5.71-3.3A17.43,17.43,0,0,0,806.49,379.55Zm-10,7.52a1.59,1.59,0,0,1-.13.13l-.57.48-.28.2-.49.34-.4.24c-.13.08-.27.15-.41.22l-.53.26-.32.14-.69.25-.18.06a10.53,10.53,0,0,1-3,.44,10.27,10.27,0,0,1-9.5-14.2c0-.06,0-.11.07-.17s.2-.42.3-.62l.21-.39.23-.37c.13-.2.25-.39.39-.57l.11-.15a10.28,10.28,0,0,1,17.05,1.12,10.13,10.13,0,0,1,1.1,2.81,1.16,1.16,0,0,1,0,.18,6.21,6.21,0,0,1,.13.73c0,.11,0,.23,0,.34s0,.39.05.59,0,.31,0,.47,0,.31,0,.47,0,.39-.05.59,0,.23,0,.34a6.21,6.21,0,0,1-.13.73,1.16,1.16,0,0,1,0,.18,10.13,10.13,0,0,1-1.1,2.81A10.34,10.34,0,0,1,796.48,387.07Z"/><path class="cls-3" d="M863.44,330.17a29,29,0,0,0-.57-5.71l9.55-5.52-8.95-15.49L854,308.94a28.39,28.39,0,0,0-10.05-5.82v-11H826v11a28.11,28.11,0,0,0-4.8,2.09l-.53.31-.54.31a27.9,27.9,0,0,0-4.2,3.1l-9.51-5.48-8.94,15.49,9.5,5.49a28.56,28.56,0,0,0-.59,5.19v1.24a28.77,28.77,0,0,0,.59,5.2l-9.5,5.48,8.94,15.5,9.51-5.49a28.37,28.37,0,0,0,10.07,5.8v11H843.9v-11a28.8,28.8,0,0,0,10-5.8l9.58,5.53,8.95-15.5L862.84,336A28.78,28.78,0,0,0,863.44,330.17Zm-16.77,12.61-.23.21c-.31.28-.63.54-1,.8l-.46.34c-.27.2-.54.38-.82.56s-.44.28-.67.41l-.69.38-.89.43-.53.22c-.39.16-.77.3-1.17.43l-.3.1A17.22,17.22,0,0,1,819,323.59l.12-.28c.15-.36.33-.71.5-1.05s.23-.43.36-.65.25-.42.38-.62.42-.65.65-1c.06-.09.13-.17.19-.25a17,17,0,0,1,5-4.42,17.25,17.25,0,0,1,25.4,11l.06.31c.09.41.16.82.22,1.23,0,.19,0,.38.06.57s.06.66.08,1,0,.52,0,.78,0,.53,0,.79,0,.66-.07,1,0,.39-.07.58c-.06.41-.13.82-.22,1.22l-.06.31a17.26,17.26,0,0,1-1.86,4.7A17,17,0,0,1,846.67,342.78Z"/><path class="cls-4" d="M807.35,726c19.42-11.36,40.15-28.8,53.81-56.24,33.38-67.08,10.53-165.66-35.48-190.49-32.32-17.44-55-1.87-85.11-20.61-41.61-25.9-15.27-79.59-55.9-127.87C641.63,279.63,543,274.41,494.88,320c-44.94,42.6-29.95,114.47-61.2,123.08-35.35,9.75-60.56-80.61-110-79.12-54.74,1.65-113.14,115.25-87.8,169,16.49,35,62.5,31.91,68.29,62.52,5.45,28.84-47.54,44.19-46.12,73.26,1.3,26.49,44.53,45.53,72.81,55.25-100.57,6.68-166.29,17.72-166.29,30.21,0,20.39,175,36.91,391,36.91s391-16.52,391-36.91C946.54,742.89,892.47,732.75,807.35,726Z"/><polygon class="cls-2" points="625.42 755.06 485.73 755.06 509.75 685.8 601.39 685.8 625.42 755.06"/><path class="cls-3" d="M331.75,475.09H779.39a0,0,0,0,1,0,0V696.76a24,24,0,0,1-24,24H355.77a24,24,0,0,1-24-24V475.09A0,0,0,0,1,331.75,475.09Z"/><path class="cls-2" d="M355.77,406.22h399.6a24,24,0,0,1,24,24V663.93a0,0,0,0,1,0,0H331.75a0,0,0,0,1,0,0V430.24A24,24,0,0,1,355.77,406.22Z"/><rect class="cls-5" x="349.75" y="430.48" width="412.42" height="208.71"/><circle class="cls-2" cx="555.57" cy="689.41" r="13.03"/><path class="cls-3" d="M661.81,755.06H449.34a12.91,12.91,0,0,1,12.91-12.91H648.9a12.91,12.91,0,0,1,12.91,12.91Z"/><rect class="cls-2" x="532.13" y="339.35" width="214.47" height="244.06" rx="18.62"/><rect class="cls-5" x="522.43" y="359.25" width="233.86" height="204.27" rx="13.52" transform="translate(1100.74 -177.98) rotate(90)"/><rect class="cls-6" x="555.11" y="410.24" width="28.4" height="28.4" rx="3.69"/><path class="cls-5" d="M578.83,418.63a7.89,7.89,0,0,1-2.24.61,3.86,3.86,0,0,0,1.72-2.13,7.89,7.89,0,0,1-2.48.93,3.91,3.91,0,0,0-2.85-1.21,3.88,3.88,0,0,0-3.91,3.84,3.65,3.65,0,0,0,.1.88,11.13,11.13,0,0,1-8-4,3.8,3.8,0,0,0,1.21,5.13,3.93,3.93,0,0,1-1.77-.48v.05a3.87,3.87,0,0,0,.26,1.4,3.92,3.92,0,0,0,2.87,2.37,3.82,3.82,0,0,1-1,.14,4.4,4.4,0,0,1-.73-.07,3.91,3.91,0,0,0,3.65,2.67,7.93,7.93,0,0,1-4.86,1.64,7.25,7.25,0,0,1-.93-.05,11.22,11.22,0,0,0,6,1.73,10.87,10.87,0,0,0,10.85-8.62,10.34,10.34,0,0,0,.27-2.32c0-.17,0-.33,0-.5A7.68,7.68,0,0,0,578.83,418.63Z"/><rect class="cls-2" x="601.21" y="414.38" width="52.92" height="20.13" rx="10.07"/><circle class="cls-5" cx="611.55" cy="424.44" r="8.84"/><rect class="cls-7" x="601.21" y="460.45" width="52.92" height="20.13" rx="10.07"/><circle class="cls-5" cx="644.23" cy="470.51" r="8.84"/><rect class="cls-2" x="601.21" y="506.51" width="52.92" height="20.13" rx="10.07"/><circle class="cls-5" cx="611.55" cy="516.58" r="8.84"/><rect class="cls-8" x="555.11" y="456.31" width="28.4" height="28.4" rx="3.69"/><path id="path2-2" class="cls-5" d="M575.43,465a14.24,14.24,0,0,0-3.64-1.12,10.22,10.22,0,0,0-.46.94,13.54,13.54,0,0,0-4,0,10.3,10.3,0,0,0-.47-.94,13.93,13.93,0,0,0-3.63,1.12,14.64,14.64,0,0,0-2.61,10,15,15,0,0,0,4.45,2.23,12,12,0,0,0,1-1.54,10.34,10.34,0,0,1-1.5-.72c.12-.09.25-.19.36-.29a10.42,10.42,0,0,0,8.9,0l.36.29a10.34,10.34,0,0,1-1.5.72,12,12,0,0,0,1,1.54A14.84,14.84,0,0,0,578,475,14.49,14.49,0,0,0,575.43,465Zm-9,8a1.77,1.77,0,0,1,0-3.52,1.77,1.77,0,0,1,0,3.52Zm5.84,0a1.77,1.77,0,0,1,0-3.52,1.77,1.77,0,0,1,0,3.52Z"/><rect class="cls-9" x="555.11" y="502.38" width="28.4" height="28.4" rx="3.69"/><polygon class="cls-5" points="567.12 520.06 566.98 523.6 568.81 521.37 567.12 520.06"/><path class="cls-5" d="M577.07,509.16c-2.92,1.18-12.32,5.1-15.88,6.58a.55.55,0,0,0,0,1l4.09,1.27,9.15-5.55a.06.06,0,0,1,.07.09l-7,6.65,6.34,4.64a.85.85,0,0,0,1.33-.53c.59-3.12,2.06-10.93,2.56-13.6A.52.52,0,0,0,577.07,509.16Z"/><line class="cls-10" x1="732.38" y1="354.5" x2="721.3" y2="365.57"/><line class="cls-10" x1="732.38" y1="365.57" x2="721.3" y2="354.5"/><rect class="cls-2" x="599.25" y="555.11" width="48.41" height="16.77" rx="8.38"/><rect class="cls-2" x="553.57" y="361.35" width="133.81" height="16.77" rx="8.38"/><rect class="cls-2" x="554.76" y="557.74" width="31.83" height="11.51" rx="5.76"/><rect class="cls-2" x="368.09" y="448.56" width="125.01" height="80.6" rx="6.34"/><rect class="cls-5" x="371.54" y="451.64" width="118.1" height="74.44" rx="3.84"/><circle class="cls-2" cx="388.45" cy="465.86" r="2.22"/><rect class="cls-2" x="394.49" y="464.64" width="30.67" height="2.43" rx="1.22"/><circle class="cls-2" cx="388.45" cy="473.88" r="2.22"/><rect class="cls-2" x="394.49" y="472.66" width="30.67" height="2.43" rx="1.22"/><circle class="cls-2" cx="388.45" cy="481.9" r="2.22"/><rect class="cls-2" x="394.49" y="480.68" width="30.67" height="2.43" rx="1.22"/><circle class="cls-2" cx="388.45" cy="489.92" r="2.22"/><rect class="cls-2" x="394.49" y="488.7" width="30.67" height="2.43" rx="1.22"/><rect class="cls-2" x="386.23" y="499.56" width="38.93" height="11.6" rx="2.52"/><path class="cls-2" d="M474.17,489.33A18.34,18.34,0,1,1,455.83,471,18.28,18.28,0,0,1,474.17,489.33Z"/><circle class="cls-5" cx="455.83" cy="486.94" r="7.18"/><path class="cls-5" d="M468.42,502.66a18.31,18.31,0,0,1-25.17,0,13.55,13.55,0,0,1,25.17,0Z"/><rect class="cls-2" x="368.09" y="540.4" width="125.01" height="14.32" rx="7.16"/><path class="cls-11" d="M761.32,571.63c6-7.86,16.59-20.65,16.59-20.65l-15.71-5.33-12.53,11.56c-4.59-1.53-10.41-5.43-18.22-16.93-3.27-4.82-7-10.87-7-10.87l-6.22,6s6.55,18.07,16.7,29.83S756.26,578.21,761.32,571.63Z"/><polygon class="cls-11" points="827.1 760.95 817.7 760.26 816 738.27 826.11 737.3 827.1 760.95"/><path class="cls-12" d="M818,755.8l8.32-1.7a.74.74,0,0,1,.87.48l4.8,10.94a1.53,1.53,0,0,1-1,1.91l-.17.05c-3.62.7-5.41.86-10,1.83-2.8.59-11.09,3.71-15,3.78s-4.23-3.85-2.59-4.23c5.29-1.21,10.51-6.14,12.56-10.91C816.64,755.78,817.38,755.91,818,755.8Z"/><polygon class="cls-11" points="766.53 761.69 757.45 759.16 760.13 737.27 770.23 738.32 766.53 761.69"/><path class="cls-12" d="M758.58,754.84l8.49,0a.74.74,0,0,1,.75.64l2.55,11.68A1.53,1.53,0,0,1,769,768.8h-.17c-3.69,0-5.47-.22-10.14-.17-2.86,0-11.6,1.46-15.49.74s-3.38-4.61-1.7-4.66c5.42-.14,11.52-4,14.47-8.22C757.29,754.56,758,754.83,758.58,754.84Z"/><path class="cls-13" d="M755.56,748.59h12.91a241.38,241.38,0,0,0,12.43-59.5q4.77-12.86,9.23-27c4.75-15.12,8.6-29.6,11.73-43.29H763.12c-1.36,23.54-9,48.34-9,74.3C754.2,712.27,754.71,730.78,755.56,748.59Z"/><path class="cls-14" d="M828.14,749.48l-13.25.45C809.6,734,804.5,717.18,799.74,699.5c-7.65-28.4-13.46-55.42-17.87-80.69,15.22,0,19.55-1.45,34.78-1.45.05,11.82,2.38,26.82,3.68,40,1.53,15.63,1.53,24.62,2.61,36.7,1.54,9.08,2.86,18.88,3.79,29.35C827.55,732.58,828,741.29,828.14,749.48Z"/><path class="cls-15" d="M775.2,530.51c-6.82,3.47-24,19-24,19,.91,6.13,5.77,14.62,13.1,19.06,0,0,15.1-17.29,18.83-21.63s3.71-7.53,1.36-11S777.14,529.53,775.2,530.51Z"/><path class="cls-12" d="M779.89,529.51a177.13,177.13,0,0,1,19.78.07c3.27.22,9.08-.46,12,2.86a7.39,7.39,0,0,1,1.64,3.6c1.83,9.17-3.71,24.2-4.07,37.81,0,0,.93,8.88,8.69,45.79,0,0-37.2,14.51-55.47,3.16,3.68-40.78-6.68-69.37,9.49-90.1C774,530.15,778.05,529.93,779.89,529.51Z"/><path class="cls-11" d="M802.61,507.66a.44.44,0,0,0,.43.44c1,0-1.53,6.76-1.83,7.09-.92,1-1.35,3.18-2.05,5.89a7.72,7.72,0,0,0,3.15,8.75s-15.72,7.73-15.57,0c0,0,3.5-11.52,3.43-11.6-1.23-1.22-7.32,1.23-5.26-14.65,1.26-9.73,9.68-8.74,11.44-8.43C797.83,495.39,803,495.72,802.61,507.66Z"/><path class="cls-14" d="M789,499c-5.14.69-8.45-.34-8.57-5-.09-3.85,5.49-8.95,9.06-7.88,5.89,1.77,6,4.69,11.4,7,8.12,3.48,8.26,9.73,7.83,13.63-.55,4.84-3.57,7.08-8.56,10.72A24.94,24.94,0,0,0,798.93,505C796.53,498.39,789,499,789,499Z"/><circle class="cls-11" cx="800.91" cy="510.9" r="2.83"/><path class="cls-11" d="M831.08,578.35c-.39-9.89-8.05-24.93-8.05-24.93l-15.49,6,5.36,15.34c-4.51,1.76-11.48,2.49-24.84-1.36-5.59-1.62-12.35-3.87-12.35-3.87l-.93,8.62s16.59,9.69,31.91,12.24S831.4,586.65,831.08,578.35Z"/><path class="cls-12" d="M815.83,534.32,832,560.18c-3.29,3.69-15.18,11.67-24.72,13.27,0,0-6.12-29.17-6.54-31.54s-.41-7,4.39-9.32S814.55,532.46,815.83,534.32Z"/><path class="cls-11" d="M724.42,529.41c-1.09-3.81-2.75-9.5-4.79-12.34s-2.48-.41-1.43,2.53.41,5.09-5.59,0c-3.75-3.15-9.71-.73-5.11,6a32.2,32.2,0,0,0,10.7,9.81Z"/><path class="cls-11" d="M777.91,570.18c-4.21-3.82-5.71-6.1-5.71-9.16s-3.76-.21-3.23,3.45c.28,2,.48,3.08.48,3.08s-7.48-.26-7.92,4.32c-.33,3.48-.34,5.62,2,8.11,2.94,3.19,13.49-1.19,13.49-1.19Z"/></svg>