<?xml version="1.0" encoding="utf-8"?>
<!-- Generator: Adobe Illustrator 27.4.0, SVG Export Plug-In . SVG Version: 6.00 Build 0)  -->
<svg version="1.1" id="Layer_1" xmlns="http://www.w3.org/2000/svg" xmlns:xlink="http://www.w3.org/1999/xlink" x="0px" y="0px"
	 viewBox="0 0 226 221.6" style="enable-background:new 0 0 226 221.6;" xml:space="preserve">
<style type="text/css">
	.st0{fill:#021250;}
	.st1{enable-background:new    ;}
	.st2{clip-path:url(#SVGID_00000116953264667207455440000013748998258491927719_);enable-background:new    ;}
	.st3{fill:#02124D;}
	.st4{fill:#02114C;}
	.st5{fill:#005239;}
	.st6{clip-path:url(#SVGID_00000182517280436457092530000004106980867018845847_);enable-background:new    ;}
	.st7{fill:#004D36;}
	.st8{fill:#004E37;}
	.st9{fill:#021354;}
	.st10{clip-path:url(#SVGID_00000140727588942415837470000000252329935375630234_);enable-background:new    ;}
	.st11{clip-path:url(#SVGID_00000076583148170690724410000006890780964352470449_);enable-background:new    ;}
	.st12{clip-path:url(#SVGID_00000019676956243815698240000002518600047351013275_);enable-background:new    ;}
	.st13{fill:#00563C;}
	.st14{clip-path:url(#SVGID_00000016778702383757096370000007571349430983114661_);enable-background:new    ;}
	.st15{fill:#00C389;}
	.st16{fill:url(#SVGID_00000062897199254587779760000011738568971398037906_);}
	.st17{fill:#052CC0;}
</style>
<g>
	<g>
		<polygon class="st0" points="169.1,74.6 151.7,91.1 149.8,80.1 167.2,63.6 		"/>
	</g>
	<g>
		<polygon class="st0" points="167.2,63.6 149.8,80.1 116.5,81.5 133.9,65 		"/>
	</g>
	<g class="st1">
		<defs>
			<path id="SVGID_1_" class="st1" d="M116.5,81.5c-1.2,0.1-2.3,0.5-3.1,1.3l17.4-16.5c0.8-0.8,1.9-1.2,3.1-1.3
				C128.7,70,121.7,76.6,116.5,81.5z"/>
		</defs>
		<clipPath id="SVGID_00000111173604538721612990000014940945044839421103_">
			<use xlink:href="#SVGID_1_"  style="overflow:visible;"/>
		</clipPath>
		<g style="clip-path:url(#SVGID_00000111173604538721612990000014940945044839421103_);enable-background:new    ;">
			<path class="st3" d="M133.9,65l-17.4,16.5c-0.3,0-0.6,0-0.8,0.1l17.4-16.5C133.3,65,133.6,65,133.9,65"/>
			<path class="st4" d="M133.1,65.1l-17.4,16.5c-0.9,0.2-1.7,0.6-2.3,1.2l17.4-16.5C131.4,65.7,132.2,65.3,133.1,65.1"/>
		</g>
	</g>
	<g>
		<polygon class="st5" points="169.1,74.6 151.7,91.1 121.9,92.4 139.3,75.9 		"/>
	</g>
	<g class="st1">
		<defs>
			<path id="SVGID_00000023272526154557284090000004292457563557606819_" class="st1" d="M113.4,82.8l17.4-16.5
				c-0.6,0.6-1.1,1.3-1.3,2.2L112.1,85C112.3,84.1,112.8,83.4,113.4,82.8z"/>
		</defs>
		<clipPath id="SVGID_00000098193108023117562100000012910205941840362128_">
			<use xlink:href="#SVGID_00000023272526154557284090000004292457563557606819_"  style="overflow:visible;"/>
		</clipPath>
		<g style="clip-path:url(#SVGID_00000098193108023117562100000012910205941840362128_);enable-background:new    ;">
			<path class="st7" d="M129.5,68.5L112.1,85c0.2-0.9,0.7-1.6,1.3-2.2l17.4-16.5C130.2,66.9,129.7,67.6,129.5,68.5"/>
		</g>
	</g>
	<g>
		<polygon class="st3" points="121.7,144.8 104.4,161.3 121.9,92.4 139.3,75.9 		"/>
	</g>
	<g>
		<polygon class="st8" points="113.4,131.8 96,148.3 112.1,85 129.5,68.5 		"/>
	</g>
	<g>
		<polygon class="st9" points="113.4,131.8 96,148.3 74.3,124.4 91.7,107.8 		"/>
	</g>
	<g class="st1">
		<defs>
			<path id="SVGID_00000091008049102794093880000000370197942725977262_" class="st1" d="M91.7,107.8l-17.4,16.5
				c-1.3-1.4-3-2.2-4.8-2.1L87,105.7C88.7,105.7,90.5,106.4,91.7,107.8z"/>
		</defs>
		<clipPath id="SVGID_00000183238809367320994450000015683678804886988964_">
			<use xlink:href="#SVGID_00000091008049102794093880000000370197942725977262_"  style="overflow:visible;"/>
		</clipPath>
		<g style="clip-path:url(#SVGID_00000183238809367320994450000015683678804886988964_);enable-background:new    ;">
			<path class="st3" d="M91.7,107.8l-17.4,16.5c-1.3-1.4-3-2.2-4.8-2.1L87,105.7C88.7,105.7,90.5,106.4,91.7,107.8"/>
		</g>
	</g>
	<g class="st1">
		<defs>
			<path id="SVGID_00000026852482111961360790000004308911969456244912_" class="st1" d="M103.1,163.6c0.6-0.6,1.1-1.4,1.3-2.2
				l17.4-16.5c-0.2,0.9-0.7,1.7-1.3,2.2C115.2,152,108.3,158.6,103.1,163.6z"/>
		</defs>
		<clipPath id="SVGID_00000167356648918463785290000003418962257497925780_">
			<use xlink:href="#SVGID_00000026852482111961360790000004308911969456244912_"  style="overflow:visible;"/>
		</clipPath>
		<g style="clip-path:url(#SVGID_00000167356648918463785290000003418962257497925780_);enable-background:new    ;">
			<path class="st4" d="M120.4,147l-17.4,16.5c0.6-0.6,1.1-1.4,1.3-2.2l17.4-16.5C121.5,145.7,121,146.5,120.4,147"/>
		</g>
	</g>
	<g class="st1">
		<defs>
			<path id="SVGID_00000114037702484401287170000008807302599678626435_" class="st1" d="M120.4,147l-17.4,16.5
				c-0.7,0.6-1.5,1.1-2.5,1.2l17.4-16.5C118.9,148.1,119.8,147.7,120.4,147z"/>
		</defs>
		<clipPath id="SVGID_00000018935674040829088310000012413106135293766542_">
			<use xlink:href="#SVGID_00000114037702484401287170000008807302599678626435_"  style="overflow:visible;"/>
		</clipPath>
		<g style="clip-path:url(#SVGID_00000018935674040829088310000012413106135293766542_);enable-background:new    ;">
			<path class="st7" d="M120.4,147l-17.4,16.5c-0.6,0.6-1.4,1-2.3,1.2l17.4-16.5C119,148,119.8,147.6,120.4,147"/>
			<path class="st8" d="M118.2,148.2l-17.4,16.5c-0.1,0-0.2,0-0.3,0l17.4-16.5C118,148.2,118.1,148.2,118.2,148.2"/>
		</g>
	</g>
	<g>
		<polygon class="st13" points="112.6,146.2 95.2,162.7 68.7,133.4 86.1,116.9 		"/>
	</g>
	<g class="st1">
		<defs>
			<path id="SVGID_00000056415334655536911550000003631298147609666432_" class="st1" d="M117.9,148.3l-17.4,16.5
				c-0.2,0-0.4,0-0.6,0.1c-1.7,0.1-3.5-0.7-4.8-2.1l17.4-16.5c1.3,1.4,3,2.2,4.8,2.1C117.5,148.3,117.7,148.3,117.9,148.3z"/>
		</defs>
		<clipPath id="SVGID_00000134963890012751825470000009412841283952956820_">
			<use xlink:href="#SVGID_00000056415334655536911550000003631298147609666432_"  style="overflow:visible;"/>
		</clipPath>
		<g style="clip-path:url(#SVGID_00000134963890012751825470000009412841283952956820_);enable-background:new    ;">
			<path class="st8" d="M117.9,148.3l-17.4,16.5c-0.2,0-0.4,0-0.6,0.1c-1.7,0.1-3.5-0.7-4.8-2.1l17.4-16.5c1.3,1.4,3,2.2,4.8,2.1
				C117.5,148.3,117.7,148.3,117.9,148.3"/>
		</g>
	</g>
	<g>
		<polygon class="st0" points="87,105.7 69.6,122.3 52.9,123 70.3,106.4 		"/>
	</g>
	<g>
		<path class="st15" d="M167.2,63.6l1.9,11l-29.8,1.3l-17.6,69c-0.5,1.8-1.9,3.2-3.8,3.5c-0.2,0-0.4,0-0.6,0.1
			c-1.7,0.1-3.5-0.7-4.8-2.1l-26.5-29.3l-13.9,0.6l-1.9-11l16.7-0.7c1.7-0.1,3.5,0.7,4.8,2.1l21.7,24l16.1-63.3
			c0.5-2,2.2-3.4,4.4-3.5L167.2,63.6z"/>
	</g>
	<g>
		<polygon class="st5" points="86.1,116.9 68.7,133.4 54.7,134 72.1,117.5 		"/>
	</g>
	<g>
		<polygon class="st5" points="72.1,117.5 54.7,134 52.9,123 70.3,106.4 		"/>
	</g>
	
		<linearGradient id="SVGID_00000009558272746020334180000012280028361624090521_" gradientUnits="userSpaceOnUse" x1="132.3642" y1="217.3495" x2="43.106" y2="35.1524">
		<stop  offset="3.595702e-04" style="stop-color:#05004D"/>
		<stop  offset="0.9998" style="stop-color:#05009B"/>
	</linearGradient>
	<path style="fill:url(#SVGID_00000009558272746020334180000012280028361624090521_);" d="M138.6,210.7c0.3-0.1,0.7-0.2,1-0.3
		c1.1-0.3,2.2-0.6,3.2-0.9c0.1,0,0.1,0,0.2-0.1c1-0.3,2-0.7,3-1c0.3-0.1,0.6-0.2,1-0.4c0.7-0.3,1.5-0.6,2.2-0.9
		c0.3-0.1,0.6-0.3,1-0.4c0.8-0.4,1.7-0.7,2.5-1.1c0.2-0.1,0.3-0.2,0.5-0.2c1-0.5,1.9-0.9,2.9-1.4c0.3-0.1,0.5-0.3,0.8-0.4
		c0.7-0.4,1.4-0.8,2.1-1.2c0.3-0.2,0.6-0.4,0.9-0.5c0.7-0.4,1.4-0.8,2-1.3c0.2-0.2,0.5-0.3,0.7-0.5c0.9-0.6,1.8-1.2,2.6-1.8
		c0.2-0.1,0.3-0.3,0.5-0.4c0.7-0.5,1.4-1,2-1.5c0.3-0.2,0.5-0.4,0.8-0.6c0.6-0.5,1.2-1,1.8-1.5c0.2-0.2,0.5-0.4,0.7-0.6
		c0.8-0.7,1.6-1.4,2.3-2.1l17.4-16.5c-0.8,0.7-1.5,1.4-2.3,2.1c-0.2,0.2-0.5,0.4-0.7,0.6c-0.6,0.5-1.2,1-1.8,1.5
		c-0.3,0.2-0.5,0.4-0.8,0.6c-0.7,0.5-1.4,1-2.1,1.6c-0.2,0.1-0.3,0.3-0.5,0.4c-0.9,0.6-1.7,1.2-2.6,1.8c-0.2,0.2-0.5,0.3-0.7,0.5
		c-0.7,0.4-1.3,0.9-2,1.3c-0.3,0.2-0.6,0.4-0.9,0.5c-0.7,0.4-1.4,0.8-2.1,1.2c-0.3,0.1-0.5,0.3-0.8,0.4c-1,0.5-1.9,1-2.9,1.4
		c-0.2,0.1-0.3,0.2-0.5,0.2c-0.8,0.4-1.6,0.7-2.5,1.1c-0.3,0.1-0.6,0.3-1,0.4c-0.7,0.3-1.5,0.6-2.2,0.9c-0.3,0.1-0.6,0.2-1,0.4
		c-1,0.4-2,0.7-3,1c-0.1,0-0.1,0-0.2,0.1c-1.1,0.3-2.1,0.6-3.2,0.9c-0.3,0.1-0.6,0.2-1,0.3c-0.8,0.2-1.6,0.4-2.4,0.6
		c-0.4,0.1-0.7,0.2-1.1,0.2c-0.7,0.2-1.4,0.3-2.2,0.4c-0.5,0.1-1,0.2-1.5,0.3c-0.7,0.1-1.5,0.2-2.2,0.3c-0.5,0.1-1,0.1-1.4,0.2
		c-0.8,0.1-1.7,0.2-2.5,0.3c-0.4,0-0.8,0.1-1.2,0.1c-1.2,0.1-2.5,0.2-3.8,0.2c-1.2,0.1-2.5,0.1-3.7,0.1c-0.2,0-0.4,0-0.6,0
		c-1.2,0-2.4,0-3.5-0.1c-0.2,0-0.5,0-0.7,0c-1.2-0.1-2.4-0.1-3.6-0.2c-0.1,0-0.3,0-0.4,0c-1.2-0.1-2.3-0.2-3.4-0.4
		c-0.1,0-0.3,0-0.4-0.1c-1.2-0.2-2.3-0.3-3.5-0.5c-0.2,0-0.5-0.1-0.7-0.1c-1.2-0.2-2.3-0.4-3.4-0.7c-0.2,0-0.4-0.1-0.6-0.1
		c-1.2-0.3-2.3-0.5-3.5-0.8c0,0-0.1,0-0.1,0c-1.2-0.3-2.3-0.6-3.5-1c-0.2-0.1-0.4-0.1-0.6-0.2c-1.1-0.3-2.2-0.7-3.3-1.1
		c-0.2-0.1-0.4-0.1-0.6-0.2c-1.1-0.4-2.3-0.8-3.4-1.2c-0.1,0-0.2-0.1-0.3-0.1c-1.1-0.4-2.2-0.9-3.2-1.3c-0.2-0.1-0.3-0.1-0.5-0.2
		c-1.1-0.5-2.1-1-3.2-1.5c-0.2-0.1-0.4-0.2-0.6-0.3c-1.1-0.5-2.1-1-3.2-1.6c-0.2-0.1-0.3-0.2-0.5-0.2c-1-0.6-2.1-1.1-3.1-1.7
		c-0.1,0-0.2-0.1-0.2-0.1c-1-0.6-2.1-1.2-3.1-1.9c-0.2-0.1-0.4-0.2-0.6-0.4c-1-0.6-2-1.3-3-1.9c-0.2-0.1-0.4-0.2-0.5-0.4
		c-1-0.7-2-1.4-3-2.1c0,0-0.1-0.1-0.1-0.1c-1-0.7-1.9-1.4-2.8-2.2c-0.1-0.1-0.3-0.2-0.4-0.3c-0.9-0.7-1.8-1.5-2.7-2.3
		c-0.2-0.2-0.4-0.3-0.5-0.5c-0.9-0.8-1.8-1.6-2.7-2.4c-0.1-0.1-0.2-0.2-0.4-0.3c-0.9-0.8-1.7-1.6-2.5-2.4c-0.1-0.1-0.2-0.2-0.3-0.3
		c-0.9-0.8-1.7-1.7-2.5-2.6c-0.2-0.2-0.3-0.3-0.5-0.5c-0.8-0.9-1.6-1.7-2.4-2.6c-0.1-0.2-0.3-0.3-0.4-0.5c-0.8-0.9-1.6-1.9-2.4-2.8
		c0,0,0,0,0,0c-0.8-1-1.5-1.9-2.3-2.9c-0.1-0.2-0.3-0.3-0.4-0.5c-0.7-0.9-1.4-1.9-2.1-2.9c-0.1-0.2-0.3-0.4-0.4-0.6
		c-0.7-1-1.4-2-2-3c-0.1-0.1-0.1-0.2-0.2-0.3c-0.6-1-1.3-2-1.9-3c-0.1-0.1-0.2-0.3-0.2-0.4c-0.6-1-1.2-2.1-1.8-3.1
		c-0.1-0.2-0.2-0.4-0.3-0.6c-0.6-1.1-1.1-2.1-1.7-3.2c-0.1-0.2-0.2-0.4-0.3-0.5c-0.5-1.1-1.1-2.2-1.6-3.3c0,0,0-0.1,0-0.1
		c-0.5-1.1-1-2.3-1.5-3.4c-0.1-0.2-0.2-0.5-0.3-0.7c-0.2-0.6-0.4-1.1-0.7-1.7c-0.1-0.3-0.2-0.5-0.3-0.8c-0.3-0.8-0.6-1.7-0.9-2.5
		c0,0,0-0.1,0-0.1c-0.3-0.8-0.5-1.6-0.8-2.4c-0.1-0.3-0.2-0.6-0.3-0.8c-0.2-0.6-0.4-1.1-0.5-1.7c-0.1-0.3-0.2-0.7-0.3-1
		c-0.2-0.5-0.3-1.1-0.4-1.6c-0.1-0.3-0.2-0.7-0.3-1c-0.1-0.5-0.3-1.1-0.4-1.6c-0.1-0.3-0.2-0.7-0.2-1c-0.1-0.6-0.3-1.2-0.4-1.8
		c-0.1-0.3-0.1-0.6-0.2-0.9c-0.2-0.9-0.3-1.8-0.5-2.6C24.1,75.9,33.7,48.2,52.8,30L35.5,46.6C16.4,64.7,6.8,92.5,11.9,123
		c0.2,0.9,0.3,1.8,0.5,2.6c0.1,0.3,0.1,0.6,0.2,0.9c0.1,0.6,0.2,1.2,0.4,1.8c0.1,0.3,0.2,0.7,0.2,1c0.1,0.5,0.3,1.1,0.4,1.6
		c0.1,0.3,0.2,0.7,0.3,1c0.1,0.5,0.3,1.1,0.4,1.6c0.1,0.3,0.2,0.7,0.3,1c0.2,0.6,0.3,1.1,0.5,1.7c0.1,0.3,0.2,0.6,0.3,0.8
		c0.3,0.8,0.5,1.6,0.8,2.4c0,0,0,0.1,0,0.1c0.3,0.8,0.6,1.7,0.9,2.5c0.1,0.3,0.2,0.5,0.3,0.8c0.2,0.6,0.4,1.1,0.7,1.7
		c0,0.1,0.1,0.2,0.1,0.3c0,0.1,0.1,0.2,0.2,0.4c0.5,1.2,1,2.3,1.5,3.4c0,0,0,0.1,0,0.1c0.5,1.1,1,2.2,1.6,3.3
		c0.1,0.2,0.2,0.4,0.3,0.5c0.5,1.1,1.1,2.1,1.7,3.2c0.1,0.2,0.2,0.4,0.3,0.6c0.6,1.1,1.2,2.1,1.8,3.1c0.1,0.1,0.2,0.3,0.2,0.4
		c0.6,1,1.2,2,1.9,3c0.1,0.1,0.1,0.2,0.2,0.3c0.7,1,1.3,2,2,3c0.1,0.2,0.3,0.4,0.4,0.6c0.7,1,1.4,1.9,2.1,2.9
		c0.1,0.2,0.2,0.3,0.4,0.5c0.7,1,1.5,1.9,2.3,2.9c0,0,0,0,0,0c0.8,1,1.6,1.9,2.4,2.8c0.1,0.2,0.3,0.3,0.4,0.5
		c0.8,0.9,1.6,1.8,2.4,2.6c0.2,0.2,0.3,0.3,0.5,0.5c0.8,0.9,1.7,1.7,2.5,2.6c0.1,0.1,0.2,0.2,0.3,0.3c0.8,0.8,1.7,1.6,2.5,2.4
		c0.1,0.1,0.2,0.2,0.3,0.3c0.9,0.8,1.8,1.6,2.7,2.4c0.2,0.2,0.4,0.3,0.5,0.5c0.9,0.8,1.8,1.5,2.8,2.3c0.1,0.1,0.3,0.2,0.4,0.3
		c0.9,0.7,1.9,1.5,2.9,2.2c0,0,0.1,0.1,0.1,0.1c1,0.7,2,1.4,3,2.1c0.2,0.1,0.4,0.2,0.5,0.4c1,0.7,2,1.3,3,1.9
		c0.2,0.1,0.4,0.2,0.6,0.4c1,0.6,2.1,1.3,3.1,1.9c0.1,0,0.1,0.1,0.2,0.1c1,0.6,2,1.2,3.1,1.7c0.2,0.1,0.3,0.2,0.5,0.2
		c1,0.6,2.1,1.1,3.2,1.6c0.2,0.1,0.4,0.2,0.6,0.3c1.1,0.5,2.1,1,3.2,1.5c0.2,0.1,0.3,0.1,0.5,0.2c1.1,0.5,2.1,0.9,3.2,1.3
		c0.1,0,0.2,0.1,0.3,0.1c1.1,0.4,2.2,0.8,3.4,1.2c0.2,0.1,0.4,0.1,0.6,0.2c1.1,0.4,2.2,0.7,3.3,1.1c0.2,0.1,0.4,0.1,0.6,0.2
		c1.2,0.3,2.3,0.7,3.5,1c0,0,0.1,0,0.1,0c1.1,0.3,2.3,0.6,3.5,0.8c0.2,0,0.4,0.1,0.6,0.1c1.1,0.2,2.3,0.5,3.4,0.7
		c0.2,0,0.4,0.1,0.7,0.1c1.2,0.2,2.3,0.4,3.5,0.5c0.1,0,0.3,0,0.4,0.1c1.1,0.1,2.3,0.3,3.4,0.4c0.1,0,0.3,0,0.4,0
		c1.2,0.1,2.4,0.2,3.6,0.2c0.2,0,0.5,0,0.7,0c1.2,0,2.3,0.1,3.5,0.1c0.2,0,0.4,0,0.6,0c1.2,0,2.5,0,3.7-0.1c1.3-0.1,2.5-0.1,3.8-0.2
		c0.4,0,0.8-0.1,1.2-0.1c0.8-0.1,1.7-0.2,2.5-0.3c0.5-0.1,1-0.1,1.4-0.2c0.7-0.1,1.5-0.2,2.2-0.3c0.5-0.1,1-0.2,1.5-0.3
		c0.5-0.1,1-0.2,1.4-0.3c0.2-0.1,0.5-0.1,0.7-0.2c0.4-0.1,0.7-0.2,1.1-0.2C137,211.1,137.8,210.9,138.6,210.7z"/>
	<g>
		<path class="st17" d="M105.7,8.2c51-2.2,99.6,38.3,108.4,90.4c8.8,52.1-25.4,96-76.4,98.2c-51,2.2-99.6-38.3-108.4-90.4
			C20.5,54.4,54.7,10.4,105.7,8.2z M169.1,74.6l-1.9-11L133.9,65c-2.1,0.1-3.9,1.5-4.4,3.5l-16.1,63.3l-21.7-24
			c-1.3-1.4-3-2.2-4.8-2.1l-16.7,0.7l1.9,11l13.9-0.6l26.5,29.3c1.3,1.4,3,2.2,4.8,2.1c0.2,0,0.4,0,0.6-0.1c1.9-0.3,3.3-1.6,3.8-3.5
			l17.6-69L169.1,74.6"/>
	</g>
</g>
</svg>
