<?xml version="1.0" encoding="utf-8"?>
<!-- Generator: Adobe Illustrator 26.2.1, SVG Export Plug-In . SVG Version: 6.00 Build 0)  -->
<svg version="1.1" id="Layer_1" xmlns="http://www.w3.org/2000/svg" xmlns:xlink="http://www.w3.org/1999/xlink" x="0px" y="0px"
	 viewBox="0 0 564.2 595.3" style="enable-background:new 0 0 564.2 595.3;" xml:space="preserve">
<style type="text/css">
	.st0{fill:#ADAFB2;}
</style>
<path class="st0" d="M156.1,299c-14.4,2.4-27.8,8.8-38.7,18.5c-10.6,9.4-19.5,20.4-16.8,35c0.1,0.7,0.3,1.3,0.7,1.9
	c1.3,1.5,3.6,0.3,5.2-1c13.8-11.2,29.4-20.7,46.6-25.1c6.2-1.6,12.5-2.4,18.8-2.5c-24.6,5.3-41,29.6-36.6,54.9
	c4.4,25.7,28.6,42.6,53.8,37.7c25.2-4.9,42-29.5,37.6-55c-1.1-6.4-3.5-12.6-7.1-18c3.6,3.8,6.7,8.2,9,12.9
	c10.1,21,17.4,43.5,14.5,67.1c4.2-8.5,5.5-19.9,5.5-29.2c-0.1-19.9-6.4-39.9-16-57.2c-4.7-8.9-11-16.8-18.6-23.3
	c-4.4-3.6-9.2-6.7-14.2-9.3C186.4,299.2,171.1,296.6,156.1,299z"/>
<path class="st0" d="M320.9,425.5c-2.8-23.6,4.4-46.2,14.5-67.1c2.3-4.7,5.4-9.1,9-12.9c-3.6,5.5-6,11.6-7.1,18
	c-4.3,25.5,12.5,50.1,37.6,55c25.3,4.9,49.4-12,53.8-37.7c4.3-25.3-12-49.6-36.6-54.9c6.4,0.1,12.7,0.9,18.8,2.5
	c17.2,4.4,32.8,13.9,46.6,25.1c1.5,1.2,3.9,2.4,5.2,1c0.4-0.5,0.6-1.2,0.7-1.9c2.7-14.6-6.2-25.7-16.8-35
	c-10.9-9.7-24.3-16.2-38.7-18.5c-15-2.4-30.3,0.2-43.7,7.4c-5,2.6-9.8,5.8-14.2,9.3c-7.6,6.5-13.9,14.5-18.6,23.3
	c-9.6,17.3-15.9,37.2-16,57.2C315.4,405.6,316.7,417,320.9,425.5z"/>
<path class="st0" d="M298.1,437.8c-6-0.7-12-0.4-18.1-0.7c-2.9-0.1-5.7,0.2-8.6,0.2c-3.2-0.1-6.4,0.3-9.5,1.1
	c-2.3,0.7-4.5,1.8-6.4,3.4c-2.5,2-3.9,5-3.9,8.2c0.1,2.9,0.9,5.7,2.4,8.2c2.9,5,6.8,9.3,11.5,12.7c4.8,3.6,10.8,7,16.5,6.6
	c5.7,0.4,11.6-3,16.5-6.6c4.7-3.3,8.6-7.7,11.5-12.7c1.4-2.5,2.3-5.3,2.4-8.2c-0.1-4.4-2.6-8.4-6.5-10.3
	C303.4,438.6,300.8,438,298.1,437.8z"/>
<path class="st0" d="M562.8,149.1c-3-46.5-17.2-106.1-30.6-139.9c-1-2.5-2.7-4.7-4.8-6.4c-11.8-9.6-39.1,8-48.3,14.9
	c-20.6,15.5-38.6,34.3-52,48.9c-16.1,17.4-30.6,36.2-43.4,56.2c-9.7,15.3-22.8,33.9-26.2,51.8c15.1-34,39.5-63.2,66.8-88.1
	c14-12.7,28.8-24.5,44.3-35.3c13.9-9.7,29.4-22.2,45.5-27.6c13.4,46.3,14.3,96.7,12.9,144.6c-0.5,19.4-1.7,39-7.8,57.4
	c-6.1,18.4-17.5,35.7-34.5,45.1c-19-16.2-39.1-32.9-61.1-44.9c23,28.4,44,58.4,62.7,89.8c3.3,4.6,4.8,10.3,4.1,15.9
	c-0.4,27.1-2.4,54.1-5.9,80.9c-2,15.2-14,23.9-26.6,30.7c-16,8.6-41.1,18.7-57.9,23.2c10.6,1.1,32.5,0.1,43.1-0.8
	c6.4-0.6,15.6-1.5,22.3-3.5c-1.4,4.9-6.3,17.7-9.2,21.9c-5,7.3-15.6,5.7-23.1,5.3c-10.7-0.5-28.4-3.1-38.9-4.6
	c7.2,6.2,22.2,13.3,30.6,17.9c-1.2-0.6-10,4.7-11.6,5.4c-3.9,1.7-7.9,3.3-11.9,4.7c-7.9,2.8-15.8,5.2-23.9,7.1
	c8.7-13.8,11.2-37.7-2.2-49.6c-5.9-5.1-13.9-7-21.4-5.1c5.1,2.1,10.1,4.6,14.1,8.3c10.9,10,9.3,24.4,0,34.9
	c-3.1,3.4-6.7,6.4-10.7,8.7c0,0,0-0.1,0-0.1c-5.4,3.2-11.3,5.5-17.5,6.9c-5.2,1.2-10.6,1.9-15.9,2c-5.3,0.1-10.7-0.6-15.8-2.1
	c-9-2.6-17.4-8.6-25.2-13.8c-0.1-0.1-0.2-0.2-0.3-0.3l-0.1,0l-0.1,0c-0.1,0.1-0.2,0.2-0.3,0.3c-7.8,5.2-16.2,11.2-25.2,13.8
	c-5.1,1.5-10.5,2.1-15.8,2.1c-5.4-0.1-10.7-0.8-15.9-2c-1-0.2-2.1-0.5-3.1-0.8l0,0c-9.4-2.6-18.5-7.4-25.1-14.8
	c-9.3-10.5-11-24.9,0-34.9c4.1-3.7,9.1-6.2,14.1-8.3c-7.6-1.9-15.6,0-21.4,5.1c-13.4,11.9-10.9,35.8-2.2,49.6
	c-8.1-2-16.1-4.3-23.9-7.1c-4-1.5-8-3.1-11.9-4.7c-1.6-0.7-10.4-6-11.6-5.4c8.4-4.6,23.3-11.7,30.6-17.9c-10.6,1.5-28.3,4-38.9,4.6
	c-7.5,0.4-18.1,2-23.1-5.3c-2.9-4.2-7.8-17-9.2-21.9c6.7,2,16,3,22.3,3.5c10.7,1,32.5,1.9,43.1,0.8c-16.7-4.6-41.8-14.6-57.9-23.2
	c-12.7-6.8-24.7-15.5-26.6-30.7c-3.5-26.8-5.5-53.8-5.9-80.9c-0.7-5.6,0.8-11.3,4.1-15.9c18.8-31.4,39.7-61.4,62.7-89.8
	c-22,11.9-42.1,28.6-61.1,44.9c-16.9-9.4-28.4-26.7-34.5-45.1c-6.1-18.4-7.3-38-7.8-57.4C36.1,120.5,37,70,50.3,23.7
	C66.4,29.1,82,41.6,95.8,51.3c15.5,10.8,30.3,22.6,44.3,35.3c27.3,24.9,51.7,54.1,66.8,88.1c-3.4-18-16.6-36.5-26.2-51.8
	c-12.8-20-27.3-38.8-43.4-56.2c-13.4-14.6-31.4-33.4-52-48.9C76,10.8,48.7-6.8,36.9,2.8c-2.1,1.7-3.8,3.9-4.8,6.4
	C18.6,43,4.5,102.6,1.5,149.1c-1.5,23.6-2.2,43.6-0.2,67.2c2.3,26.6,8.7,47.4,18.6,63.4c10.4,16.5,24.8,30.1,41.9,39.5l0.5,0.3
	l-0.1,0.6c-2.6,19.1-1.6,39.7-1.9,59.1c-0.4,19.1,0.5,38.8,7.7,56.5c4.3,10.5,9.3,20.6,13.1,28.3c2.9,5.7,6.1,11.2,9.2,16.6
	c13.2,22.8,26.2,44.8,48.1,59.7c9.3,6.3,18.8,9.1,29.4,12.5c21.9,7,43.7,14.9,63.5,26.4c3.5,2,7,4.1,10.4,6.2c7,4.2,13.5,8.2,22,9.1
	c4.6,0.5,9.2,0.8,13.8,0.9c1.5,0,3,0,4.5,0c1.5,0,3,0.1,4.5,0c4.6,0,9.2-0.4,13.8-0.9c8.4-0.9,15-4.9,22-9.1
	c3.5-2.1,6.9-4.2,10.4-6.2c19.8-11.5,41.5-19.4,63.5-26.4c10.6-3.4,20.1-6.2,29.4-12.5c21.9-14.9,35-36.8,48.1-59.7
	c3.1-5.4,6.3-11,9.2-16.6c3.9-7.7,8.9-17.8,13.1-28.3c7.2-17.7,8.1-37.4,7.7-56.5c-0.4-19.3,0.7-39.9-1.9-59.1l-0.1-0.6l0.5-0.3
	c17-9.5,31.4-23.1,41.9-39.5c10-15.9,16.3-36.7,18.6-63.4C565,192.7,564.3,172.7,562.8,149.1z M296.4,550.1
	c-4.7,0.2-9.5,0.4-14.3,0.4c-4.8-0.1-9.5-0.2-14.3-0.4c-1.2,0-2.4-0.1-3.7-0.2c-1.5-0.1-3.1-0.3-4.6-0.5c-4.1-0.6-8.3-0.5-10.1-3.5
	c-0.1-0.1-0.1-0.3-0.2-0.4c-1.9-5.1,0.6-11.3,4.6-14.6c4.7-3.9,11-5.3,17.1-6.3c3.6-0.4,7.4-0.7,11.2-0.8c3.8,0.1,7.5,0.4,11.2,0.8
	c6.1,1,12.4,2.4,17.1,6.3c4,3.4,6.5,9.5,4.6,14.6c-0.1,0.2-0.1,0.3-0.2,0.4c-1.8,3-6,2.9-10.1,3.5c-1.5,0.2-3.1,0.4-4.6,0.5
	C298.8,550,297.6,550,296.4,550.1z"/>
<path class="st0" d="M246,289.3c1.6-0.1,3.1,0.7,3.9,2.1c4.8,6.3,9.8,12.4,14.7,18.7c1.5,2,3.3,3.2,5.9,2.7c2.5-0.5,3.4-2.5,4.3-4.6
	c9.3-22.1,14-33.6,23.3-55.7c0.8-1.8,1.7-2.6,3.7-2.6c6.8-0.1,13.5-0.3,20.3-0.6c3.7-0.2,6-2.4,5.9-5.6c-0.1-3.2-2.4-5.2-6.1-5.1
	c-8.5,0.2-16.9,0.6-25.4,0.8c-2.7-0.1-5.1,1.6-5.9,4.2c-1.9,4.6-3.8,9.2-5.8,13.7c-7.1,16.8-9.5,23-16.8,40.2
	c-3.8-4.8-7.6-9.1-10.8-13.8c-2.9-4.3-6.5-5.7-11.3-5c-3.4,0.5-5.6,2.4-5.6,5.5C240.3,287.1,242.5,289.3,246,289.3z"/>
</svg>
