<?xml version="1.0" encoding="UTF-8" standalone="no"?>
<svg
   xmlns:dc="http://purl.org/dc/elements/1.1/"
   xmlns:cc="http://creativecommons.org/ns#"
   xmlns:rdf="http://www.w3.org/1999/02/22-rdf-syntax-ns#"
   xmlns:svg="http://www.w3.org/2000/svg"
   xmlns="http://www.w3.org/2000/svg"
   xmlns:sodipodi="http://sodipodi.sourceforge.net/DTD/sodipodi-0.dtd"
   xmlns:inkscape="http://www.inkscape.org/namespaces/inkscape"
   id="svg18"
   version="1.1"
   fill="none"
   viewBox="0 0 473 472"
   height="472"
   width="473"
   sodipodi:docname="Logo_3.svg"
   inkscape:version="0.92.3 (2405546, 2018-03-11)">
  <sodipodi:namedview
     pagecolor="#ffffff"
     bordercolor="#666666"
     borderopacity="1"
     objecttolerance="10"
     gridtolerance="10"
     guidetolerance="10"
     inkscape:pageopacity="0"
     inkscape:pageshadow="2"
     inkscape:window-width="1280"
     inkscape:window-height="961"
     id="namedview13"
     showgrid="false"
     inkscape:zoom="0.5"
     inkscape:cx="-128.5"
     inkscape:cy="236"
     inkscape:window-x="1272"
     inkscape:window-y="-8"
     inkscape:window-maximized="1"
     inkscape:current-layer="svg18" />
  <metadata
     id="metadata24">
    <rdf:RDF>
      <cc:Work
         rdf:about="">
        <dc:format>image/svg+xml</dc:format>
        <dc:type
           rdf:resource="http://purl.org/dc/dcmitype/StillImage" />
        <dc:title></dc:title>
      </cc:Work>
    </rdf:RDF>
  </metadata>
  <defs
     id="defs22" />
  <rect
     id="rect2"
     fill="#003057"
     height="471.853"
     width="471.853"
     y="0.020874"
     x="0.220703"
     style="fill:none" />
  <path
     style="stroke:#ffffff;stroke-opacity:1"
     id="path4"
     fill="#04C187"
     d="M287.022 113.6C279.168 113.6 272.026 118.154 268.711 125.275L246.266 173.503L282.887 190.547L299.899 153.993H383.949V113.6H287.022Z" />
  <path
     style="stroke:#ffffff;stroke-opacity:1"
     id="path6"
     fill="#04C187"
     d="M69.2886 276.205H99.6992L166.699 368.974C170.894 374.783 177.853 377.934 184.987 377.255C192.12 376.576 198.359 372.168 201.383 365.671L230.933 302.178L194.312 285.134L179.288 317.415L126.399 244.184C122.602 238.926 116.511 235.812 110.026 235.812H69.2886V276.205Z" />
  <path
     style="stroke:#ffffff;stroke-opacity:1"
     id="path8"
     fill="#04C187"
     d="M231.956 175.102L185.314 274.735L198.118 280.729L244.76 181.096L231.956 175.102Z" />
  <path
     style="stroke:#ffffff;stroke-opacity:1"
     id="path10"
     fill="#04C187"
     d="M206.534 285.212L256.598 180.582L269.351 186.684L219.287 291.314L206.534 285.212Z" />
  <path
     style="stroke:#ffffff;stroke-opacity:1"
     id="path12"
     fill="#04C187"
     d="M281.283 190.105L231.219 294.735L243.972 300.837L294.036 196.207L281.283 190.105Z" />
  <path
     id="path14"
     fill="white"
     d="M214.43 195.957C215.364 195.346 215.625 194.095 215.015 193.161C214.404 192.228 213.153 191.966 212.219 192.576C204.144 197.858 197.415 205.027 192.657 213.457C192.109 214.429 192.452 215.661 193.423 216.209C194.395 216.757 195.627 216.414 196.175 215.442C200.614 207.577 206.894 200.886 214.43 195.957Z" />
  <path
     style="stroke:none;stroke-opacity:1;fill:#274245;fill-opacity:1"
     id="path16"
     fill="white"
     d="M187.014 285.06C212.696 310.742 253.217 312.539 280.975 290.451L325.196 334.672C328.351 337.827 333.466 337.827 336.621 334.672C339.776 331.517 339.776 326.402 336.621 323.247L292.4 279.026C314.489 251.268 312.693 210.746 287.011 185.064C259.398 157.45 214.628 157.45 187.014 185.064C159.401 212.677 159.401 257.447 187.014 285.06ZM198.439 196.489C177.136 217.792 177.136 252.332 198.439 273.636C219.73 294.927 254.243 294.939 275.549 273.672L275.585 273.636L275.622 273.6C296.889 252.293 296.878 217.78 275.586 196.489C254.282 175.185 219.743 175.185 198.439 196.489Z"
     clip-rule="evenodd"
     fill-rule="evenodd" />
</svg>
